<?xml version="1.0" encoding="UTF-8"?>
<svg id="Layer_1" xmlns="http://www.w3.org/2000/svg" version="1.1" xmlns:xlink="http://www.w3.org/1999/xlink" viewBox="0 0 640 480">
  <!-- Generator: Adobe Illustrator 29.5.1, SVG Export Plug-In . SVG Version: 2.1.0 Build 141)  -->
  <defs>
    <style>
      .st0, .st1 {
        fill: #fff;
      }

      .st1, .st2, .st3 {
        fill-rule: evenodd;
      }

      .st4 {
        fill: none;
      }

      .st5 {
        fill: #ff6820;
      }

      .st6 {
        fill: #046a38;
      }

      .st2 {
        fill: #bd3d44;
      }

      .st3 {
        fill: #192f5d;
      }

      .st7 {
        display: none;
      }

      .st8 {
        clip-path: url(#clippath);
      }

      .st9 {
        fill: #07038d;
      }
    </style>
    <clipPath id="clippath">
      <rect class="st4" width="640" height="480"/>
    </clipPath>
  </defs>
  <g class="st7">
    <g class="st8">
      <g>
        <g>
          <path class="st2" d="M0,0h912.01v36.92H0V0ZM0,73.85h912.01v36.92H0v-36.92ZM0,147.69h912.01v36.92H0v-36.92ZM0,221.54h912.01v36.92H0v-36.92ZM0,295.39h912.01v36.92H0v-36.92ZM0,369.23h912.01v36.92H0v-36.92ZM0,443.08h912.01v36.92H0v-36.92Z"/>
          <path class="st1" d="M0,36.92h912.01v36.92H0v-36.92ZM0,110.77h912.01v36.92H0v-36.92ZM0,184.62h912.01v36.92H0v-36.92ZM0,258.46h912.01v36.92H0v-36.92ZM0,332.31h912.01v36.92H0v-36.92ZM0,406.16h912.01v36.92H0v-36.92Z"/>
        </g>
        <path class="st3" d="M0,0h364.8v258.46H0V0Z"/>
        <path class="st1" d="M30.4,11.06l3.32,10.21h10.74l-8.69,6.31,3.32,10.22-8.69-6.31-8.69,6.31,3.32-10.22-8.69-6.31h10.74l3.32-10.22ZM91.2,11.06l3.32,10.21h10.74l-8.69,6.31,3.32,10.22-8.69-6.31-8.69,6.31,3.32-10.22-8.69-6.31h10.74l3.32-10.22ZM152,11.06l3.32,10.21h10.74l-8.69,6.31,3.32,10.22-8.69-6.31-8.69,6.31,3.32-10.22-8.69-6.31h10.74l3.32-10.22ZM212.8,11.06l3.32,10.21h10.74l-8.69,6.31,3.32,10.22-8.69-6.31-8.69,6.31,3.32-10.22-8.69-6.31h10.74l3.32-10.22ZM273.6,11.06l3.32,10.21h10.74l-8.69,6.31,3.32,10.22-8.69-6.31-8.69,6.31,3.32-10.22-8.69-6.31h10.74l3.32-10.22ZM334.4,11.06l3.32,10.21h10.74l-8.69,6.31,3.32,10.22-8.69-6.31-8.69,6.31,3.32-10.22-8.69-6.31h10.74l3.32-10.22ZM60.8,36.91l3.32,10.21h10.74l-8.69,6.31,3.32,10.22-8.69-6.31-8.69,6.31,3.32-10.22-8.69-6.31h10.74l3.32-10.21ZM121.6,36.91l3.32,10.21h10.74l-8.69,6.31,3.32,10.22-8.69-6.31-8.69,6.31,3.32-10.22-8.69-6.31h10.74l3.32-10.21ZM182.4,36.91l3.32,10.21h10.74l-8.69,6.31,3.32,10.22-8.69-6.31-8.69,6.31,3.32-10.22-8.69-6.31h10.74l3.32-10.21ZM243.2,36.91l3.32,10.21h10.74l-8.69,6.31,3.32,10.22-8.69-6.31-8.69,6.31,3.32-10.22-8.69-6.31h10.74l3.32-10.21ZM304,36.91l3.32,10.21h10.74l-8.69,6.31,3.32,10.22-8.69-6.31-8.69,6.31,3.32-10.22-8.69-6.31h10.74l3.32-10.21ZM30.4,62.76l3.32,10.21h10.74l-8.69,6.31,3.32,10.21-8.69-6.31-8.69,6.31,3.32-10.21-8.69-6.31h10.74l3.32-10.21ZM91.2,62.76l3.32,10.21h10.74l-8.69,6.31,3.32,10.21-8.69-6.31-8.69,6.31,3.32-10.21-8.69-6.31h10.74l3.32-10.21ZM152,62.76l3.32,10.21h10.74l-8.69,6.31,3.32,10.21-8.69-6.31-8.69,6.31,3.32-10.21-8.69-6.31h10.74l3.32-10.21ZM212.8,62.76l3.32,10.21h10.74l-8.69,6.31,3.32,10.21-8.69-6.31-8.69,6.31,3.32-10.21-8.69-6.31h10.74l3.32-10.21ZM273.6,62.76l3.32,10.21h10.74l-8.69,6.31,3.32,10.21-8.69-6.31-8.69,6.31,3.32-10.21-8.69-6.31h10.74l3.32-10.21ZM334.4,62.76l3.32,10.21h10.74l-8.69,6.31,3.32,10.21-8.69-6.31-8.69,6.31,3.32-10.21-8.69-6.31h10.74l3.32-10.21ZM60.8,88.6l3.32,10.22h10.74l-8.69,6.31,3.32,10.22-8.69-6.31-8.69,6.31,3.32-10.22-8.69-6.31h10.74l3.32-10.21ZM121.6,88.6l3.32,10.22h10.74l-8.69,6.31,3.32,10.22-8.69-6.31-8.69,6.31,3.32-10.22-8.69-6.31h10.74l3.32-10.21ZM182.4,88.6l3.32,10.22h10.74l-8.69,6.31,3.32,10.22-8.69-6.31-8.69,6.31,3.32-10.22-8.69-6.31h10.74l3.32-10.21ZM243.2,88.6l3.32,10.22h10.74l-8.69,6.31,3.32,10.22-8.69-6.31-8.69,6.31,3.32-10.22-8.69-6.31h10.74l3.32-10.21ZM304,88.6l3.32,10.22h10.74l-8.69,6.31,3.32,10.22-8.69-6.31-8.69,6.31,3.32-10.22-8.69-6.31h10.74l3.32-10.21ZM30.4,114.45l3.32,10.22h10.74l-8.69,6.31,3.32,10.21-8.69-6.31-8.69,6.31,3.32-10.21-8.69-6.31h10.74l3.32-10.21ZM91.2,114.45l3.32,10.22h10.74l-8.69,6.31,3.32,10.21-8.69-6.31-8.69,6.31,3.32-10.21-8.69-6.31h10.74l3.32-10.21ZM152,114.45l3.32,10.22h10.74l-8.69,6.31,3.32,10.21-8.69-6.31-8.69,6.31,3.32-10.21-8.69-6.31h10.74l3.32-10.21ZM212.8,114.45l3.32,10.22h10.74l-8.69,6.31,3.32,10.21-8.69-6.31-8.69,6.31,3.32-10.21-8.69-6.31h10.74l3.32-10.21ZM273.6,114.45l3.32,10.22h10.74l-8.69,6.31,3.32,10.21-8.69-6.31-8.69,6.31,3.32-10.21-8.69-6.31h10.74l3.32-10.21ZM334.4,114.45l3.32,10.22h10.74l-8.69,6.31,3.32,10.21-8.69-6.31-8.69,6.31,3.32-10.21-8.69-6.31h10.74l3.32-10.21ZM60.8,140.29l3.32,10.21h10.74l-8.69,6.31,3.32,10.22-8.69-6.31-8.69,6.31,3.32-10.22-8.69-6.31h10.74l3.32-10.22ZM121.6,140.29l3.32,10.21h10.74l-8.69,6.31,3.32,10.22-8.69-6.31-8.69,6.31,3.32-10.22-8.69-6.31h10.74l3.32-10.22ZM182.4,140.29l3.32,10.21h10.74l-8.69,6.31,3.32,10.22-8.69-6.31-8.69,6.31,3.32-10.22-8.69-6.31h10.74l3.32-10.22ZM243.2,140.29l3.32,10.21h10.74l-8.69,6.31,3.32,10.22-8.69-6.31-8.69,6.31,3.32-10.22-8.69-6.31h10.74l3.32-10.22ZM304,140.29l3.32,10.21h10.74l-8.69,6.31,3.32,10.22-8.69-6.31-8.69,6.31,3.32-10.22-8.69-6.31h10.74l3.32-10.22ZM30.4,166.14l3.32,10.21h10.74l-8.69,6.31,3.32,10.21-8.69-6.31-8.69,6.31,3.32-10.21-8.69-6.31h10.74l3.32-10.21ZM91.2,166.14l3.32,10.21h10.74l-8.69,6.31,3.32,10.21-8.69-6.31-8.69,6.31,3.32-10.21-8.69-6.31h10.74l3.32-10.21ZM152,166.14l3.32,10.21h10.74l-8.69,6.31,3.32,10.21-8.69-6.31-8.69,6.31,3.32-10.21-8.69-6.31h10.74l3.32-10.21ZM212.8,166.14l3.32,10.21h10.74l-8.69,6.31,3.32,10.21-8.69-6.31-8.69,6.31,3.32-10.21-8.69-6.31h10.74l3.32-10.21ZM273.6,166.14l3.32,10.21h10.74l-8.69,6.31,3.32,10.21-8.69-6.31-8.69,6.31,3.32-10.21-8.69-6.31h10.74l3.32-10.21ZM334.4,166.14l3.32,10.21h10.74l-8.69,6.31,3.32,10.21-8.69-6.31-8.69,6.31,3.32-10.21-8.69-6.31h10.74l3.32-10.21ZM60.8,191.99l3.32,10.21h10.74l-8.69,6.31,3.32,10.22-8.69-6.31-8.69,6.31,3.32-10.22-8.69-6.31h10.74l3.32-10.21ZM121.6,191.99l3.32,10.21h10.74l-8.69,6.31,3.32,10.22-8.69-6.31-8.69,6.31,3.32-10.22-8.69-6.31h10.74l3.32-10.21ZM182.4,191.99l3.32,10.21h10.74l-8.69,6.31,3.32,10.22-8.69-6.31-8.69,6.31,3.32-10.22-8.69-6.31h10.74l3.32-10.21ZM243.2,191.99l3.32,10.21h10.74l-8.69,6.31,3.32,10.22-8.69-6.31-8.69,6.31,3.32-10.22-8.69-6.31h10.74l3.32-10.21ZM304,191.99l3.32,10.21h10.74l-8.69,6.31,3.32,10.22-8.69-6.31-8.69,6.31,3.32-10.22-8.69-6.31h10.74l3.32-10.21ZM30.4,217.83l3.32,10.21h10.74l-8.69,6.31,3.32,10.21-8.69-6.31-8.69,6.31,3.32-10.21-8.69-6.31h10.74l3.32-10.21ZM91.2,217.83l3.32,10.21h10.74l-8.69,6.31,3.32,10.21-8.69-6.31-8.69,6.31,3.32-10.21-8.69-6.31h10.74l3.32-10.21ZM152,217.83l3.32,10.21h10.74l-8.69,6.31,3.32,10.21-8.69-6.31-8.69,6.31,3.32-10.21-8.69-6.31h10.74l3.32-10.21ZM212.8,217.83l3.32,10.21h10.74l-8.69,6.31,3.32,10.21-8.69-6.31-8.69,6.31,3.32-10.21-8.69-6.31h10.74l3.32-10.21ZM273.6,217.83l3.32,10.21h10.74l-8.69,6.31,3.32,10.21-8.69-6.31-8.69,6.31,3.32-10.21-8.69-6.31h10.74l3.32-10.21ZM334.4,217.83l3.32,10.21h10.74l-8.69,6.31,3.32,10.21-8.69-6.31-8.69,6.31,3.32-10.21-8.69-6.31h10.74l3.32-10.21Z"/>
      </g>
    </g>
  </g>
  <g>
    <path class="st0" d="M-40,0h720v480H-40V0Z"/>
    <path class="st5" d="M-40,0h720v160H-40V0Z"/>
    <path class="st6" d="M-40,320h720v160H-40v-160Z"/>
    <circle class="st9" cx="320" cy="240" r="74"/>
    <circle class="st0" cx="320" cy="240" r="64"/>
    <circle class="st9" cx="320" cy="240" r="12.8"/>
    <g id="d">
      <g id="c">
        <g id="b">
          <g id="a">
            <path class="st9" d="M320,176l2.4,38.51-2.4,19.07-2.4-19.07,2.4-38.51Z"/>
            <circle class="st9" cx="328.35" cy="176.55" r="2.8"/>
          </g>
          <g id="a1" data-name="a">
            <path class="st9" d="M320,304l-2.4-38.51,2.4-19.07,2.4,19.07-2.4,38.51Z"/>
            <circle class="st9" cx="311.65" cy="303.45" r="2.8"/>
          </g>
        </g>
        <g id="b1" data-name="b">
          <g id="a2" data-name="a">
            <path class="st9" d="M336.56,178.18l-7.65,37.82-7.25,17.8,2.62-19.04,12.29-36.58Z"/>
            <circle class="st9" cx="344.49" cy="180.87" r="2.8"/>
          </g>
          <g id="a3" data-name="a">
            <path class="st9" d="M303.44,301.82l7.65-37.82,7.25-17.8-2.62,19.04-12.29,36.58Z"/>
            <circle class="st9" cx="295.51" cy="299.13" r="2.8"/>
          </g>
        </g>
      </g>
      <g id="c1" data-name="c">
        <g id="b2" data-name="b">
          <g id="a4" data-name="a">
            <path class="st9" d="M352,184.57l-17.18,34.55-11.61,15.31,7.46-17.71,21.33-32.15Z"/>
            <circle class="st9" cx="358.96" cy="189.23" r="2.8"/>
          </g>
          <g id="a5" data-name="a">
            <path class="st9" d="M288,295.43l17.18-34.55,11.61-15.31-7.46,17.71-21.33,32.15Z"/>
            <circle class="st9" cx="281.04" cy="290.77" r="2.8"/>
          </g>
        </g>
        <g id="b3" data-name="b">
          <g id="a6" data-name="a">
            <path class="st9" d="M365.25,194.75l-25.54,28.93-15.18,11.79,11.79-15.18,28.93-25.54Z"/>
            <circle class="st9" cx="370.77" cy="201.04" r="2.8"/>
          </g>
          <g id="a7" data-name="a">
            <path class="st9" d="M274.75,285.25l25.54-28.93,15.18-11.79-11.79,15.18-28.93,25.54Z"/>
            <circle class="st9" cx="269.23" cy="278.96" r="2.8"/>
          </g>
        </g>
      </g>
    </g>
    <g id="d1" data-name="d">
      <g id="c2" data-name="c">
        <g id="b4" data-name="b">
          <g id="a8" data-name="a">
            <path class="st9" d="M375.43,208l-32.15,21.33-17.71,7.46,15.31-11.61,34.55-17.18Z"/>
            <circle class="st9" cx="379.13" cy="215.51" r="2.8"/>
          </g>
          <g id="a9" data-name="a">
            <path class="st9" d="M264.57,272l32.15-21.33,17.71-7.46-15.31,11.61-34.55,17.18Z"/>
            <circle class="st9" cx="260.87" cy="264.49" r="2.8"/>
          </g>
        </g>
        <g id="b5" data-name="b">
          <g id="a10" data-name="a">
            <path class="st9" d="M381.82,223.44l-36.58,12.29-19.04,2.62,17.8-7.25,37.82-7.65Z"/>
            <circle class="st9" cx="383.45" cy="231.65" r="2.8"/>
          </g>
          <g id="a11" data-name="a">
            <path class="st9" d="M258.18,256.56l36.58-12.29,19.04-2.62-17.8,7.25-37.82,7.65Z"/>
            <circle class="st9" cx="256.55" cy="248.35" r="2.8"/>
          </g>
        </g>
      </g>
      <g id="c3" data-name="c">
        <g id="b6" data-name="b">
          <g id="a12" data-name="a">
            <path class="st9" d="M384,240l-38.51,2.4-19.07-2.4,19.07-2.4,38.51,2.4Z"/>
            <circle class="st9" cx="383.45" cy="248.35" r="2.8"/>
          </g>
          <g id="a13" data-name="a">
            <path class="st9" d="M256,240l38.51-2.4,19.07,2.4-19.07,2.4-38.51-2.4Z"/>
            <circle class="st9" cx="256.55" cy="231.65" r="2.8"/>
          </g>
        </g>
        <g id="b7" data-name="b">
          <g id="a14" data-name="a">
            <path class="st9" d="M381.82,256.56l-37.82-7.65-17.8-7.25,19.04,2.62,36.58,12.29Z"/>
            <circle class="st9" cx="379.13" cy="264.49" r="2.8"/>
          </g>
          <g id="a15" data-name="a">
            <path class="st9" d="M258.18,223.44l37.82,7.65,17.8,7.25-19.04-2.62-36.58-12.29Z"/>
            <circle class="st9" cx="260.87" cy="215.51" r="2.8"/>
          </g>
        </g>
      </g>
    </g>
    <g id="d2" data-name="d">
      <g id="c4" data-name="c">
        <g id="b8" data-name="b">
          <g id="a16" data-name="a">
            <path class="st9" d="M375.43,272l-34.55-17.18-15.31-11.61,17.71,7.46,32.15,21.33Z"/>
            <circle class="st9" cx="370.77" cy="278.96" r="2.8"/>
          </g>
          <g id="a17" data-name="a">
            <path class="st9" d="M264.57,208l34.55,17.18,15.31,11.61-17.71-7.46-32.15-21.33Z"/>
            <circle class="st9" cx="269.23" cy="201.04" r="2.8"/>
          </g>
        </g>
        <g id="b9" data-name="b">
          <g id="a18" data-name="a">
            <path class="st9" d="M365.25,285.25l-28.93-25.54-11.79-15.18,15.18,11.79,25.54,28.93Z"/>
            <circle class="st9" cx="358.96" cy="290.77" r="2.8"/>
          </g>
          <g id="a19" data-name="a">
            <path class="st9" d="M274.75,194.75l28.93,25.54,11.79,15.18-15.18-11.79-25.54-28.93Z"/>
            <circle class="st9" cx="281.04" cy="189.23" r="2.8"/>
          </g>
        </g>
      </g>
      <g id="c5" data-name="c">
        <g id="b10" data-name="b">
          <g id="a20" data-name="a">
            <path class="st9" d="M352,295.43l-21.33-32.15-7.46-17.71,11.61,15.31,17.18,34.55Z"/>
            <circle class="st9" cx="344.49" cy="299.13" r="2.8"/>
          </g>
          <g id="a21" data-name="a">
            <path class="st9" d="M288,184.57l21.33,32.15,7.46,17.71-11.61-15.31-17.18-34.55Z"/>
            <circle class="st9" cx="295.51" cy="180.87" r="2.8"/>
          </g>
        </g>
        <g id="b11" data-name="b">
          <g id="a22" data-name="a">
            <path class="st9" d="M336.56,301.82l-12.29-36.58-2.62-19.04,7.25,17.8,7.65,37.82Z"/>
            <circle class="st9" cx="328.35" cy="303.45" r="2.8"/>
          </g>
          <g id="a23" data-name="a">
            <path class="st9" d="M303.44,178.18l12.29,36.58,2.62,19.04-7.25-17.8-7.65-37.82Z"/>
            <circle class="st9" cx="311.65" cy="176.55" r="2.8"/>
          </g>
        </g>
      </g>
    </g>
  </g>
</svg>