<?xml version="1.0" encoding="UTF-8"?>
<svg id="Layer_1" xmlns="http://www.w3.org/2000/svg" version="1.1" xmlns:xlink="http://www.w3.org/1999/xlink" viewBox="0 0 168.99 21">
  <!-- Generator: Adobe Illustrator 29.5.1, SVG Export Plug-In . SVG Version: 2.1.0 Build 141)  -->
  <defs>
    <style>
      .st0 {
        fill: url(#linear-gradient2);
      }

      .st1 {
        fill: #e2aaad;
      }

      .st2 {
        fill: url(#linear-gradient10);
      }

      .st3 {
        fill: #a4151f;
      }

      .st4 {
        fill: #f9efe3;
      }

      .st5 {
        fill: #f5e16b;
      }

      .st6 {
        fill: url(#linear-gradient1);
      }

      .st7 {
        fill: url(#linear-gradient9);
      }

      .st8 {
        fill: url(#linear-gradient8);
      }

      .st9 {
        fill: url(#linear-gradient11);
      }

      .st10 {
        fill: #aa2630;
      }

      .st11 {
        fill: #eec213;
      }

      .st12 {
        fill: url(#linear-gradient12);
      }

      .st13 {
        fill: #e99619;
      }

      .st14 {
        fill: #f5d89c;
      }

      .st15 {
        fill: url(#linear-gradient7);
      }

      .st16 {
        fill: url(#linear-gradient4);
      }

      .st17 {
        fill: #d3312c;
      }

      .st18 {
        fill: #d66e1e;
      }

      .st19 {
        fill: url(#linear-gradient14);
      }

      .st20 {
        fill: #f1d536;
      }

      .st21 {
        fill: url(#linear-gradient5);
      }

      .st22 {
        fill: url(#linear-gradient3);
      }

      .st23 {
        fill: #f6e2cd;
      }

      .st24 {
        fill: url(#linear-gradient15);
      }

      .st25 {
        fill: url(#linear-gradient6);
      }

      .st26 {
        fill: #fefefe;
      }

      .st27 {
        fill: url(#linear-gradient13);
      }

      .st28 {
        fill: #771515;
      }

      .st29 {
        fill: url(#linear-gradient);
      }

      .st30 {
        fill: #bf1927;
      }
    </style>
    <linearGradient id="linear-gradient" x1="14.11" y1="11.22" x2="183.79" y2="11.63" gradientUnits="userSpaceOnUse">
      <stop offset="0" stop-color="#841419"/>
      <stop offset="1" stop-color="#cd551c"/>
    </linearGradient>
    <linearGradient id="linear-gradient1" x1="14.11" y1="12.46" x2="183.79" y2="12.87" xlink:href="#linear-gradient"/>
    <linearGradient id="linear-gradient2" x1="14.12" y1="10.84" x2="183.79" y2="11.26" xlink:href="#linear-gradient"/>
    <linearGradient id="linear-gradient3" x1="14.11" y1="12.4" x2="183.79" y2="12.81" xlink:href="#linear-gradient"/>
    <linearGradient id="linear-gradient4" x1="14.12" y1="10.8" x2="183.79" y2="11.21" xlink:href="#linear-gradient"/>
    <linearGradient id="linear-gradient5" x1="14.11" y1="12.37" x2="183.79" y2="12.79" xlink:href="#linear-gradient"/>
    <linearGradient id="linear-gradient6" x1="14.11" y1="12.27" x2="183.79" y2="12.69" xlink:href="#linear-gradient"/>
    <linearGradient id="linear-gradient7" x1="14.11" y1="12.33" x2="183.79" y2="12.74" xlink:href="#linear-gradient"/>
    <linearGradient id="linear-gradient8" x1="14.11" y1="11.07" x2="183.79" y2="11.48" xlink:href="#linear-gradient"/>
    <linearGradient id="linear-gradient9" x1="14.11" y1="12.26" x2="183.79" y2="12.67" xlink:href="#linear-gradient"/>
    <linearGradient id="linear-gradient10" x1="14.11" y1="12.23" x2="183.79" y2="12.64" xlink:href="#linear-gradient"/>
    <linearGradient id="linear-gradient11" x1="14.12" y1="10.49" x2="183.79" y2="10.9" xlink:href="#linear-gradient"/>
    <linearGradient id="linear-gradient12" x1="14.11" y1="12.21" x2="183.79" y2="12.62" xlink:href="#linear-gradient"/>
    <linearGradient id="linear-gradient13" x1="14.11" y1="12.12" x2="183.79" y2="12.53" xlink:href="#linear-gradient"/>
    <linearGradient id="linear-gradient14" x1="14.11" y1="13.73" x2="183.79" y2="14.14" xlink:href="#linear-gradient"/>
    <linearGradient id="linear-gradient15" x1="14.11" y1="12.14" x2="183.79" y2="12.55" xlink:href="#linear-gradient"/>
  </defs>
  <g>
    <path class="st29" d="M31.46,12.76h-3.63v-5.91c0-.2.06-.35.17-.46.11-.11.26-.19.46-.25.35-.12.77-.2,1.28-.25.5-.05,1.01-.08,1.5-.08,1.5,0,2.61.31,3.36.92.74.61,1.11,1.47,1.11,2.56,0,.68-.17,1.29-.5,1.82s-.82.94-1.45,1.23-1.39.43-2.29.43ZM27.83,12.15h1.88v4.4c-.08.04-.2.07-.36.1-.16.03-.33.04-.51.04-.35,0-.6-.07-.77-.2-.16-.13-.24-.36-.24-.67v-3.67ZM29.69,11.25h1.69c.75,0,1.35-.17,1.78-.5.44-.33.65-.82.65-1.47s-.22-1.12-.67-1.45c-.45-.33-1.09-.5-1.94-.5-.28,0-.55.01-.81.04s-.5.06-.7.1v3.77ZM31.3,12.24l1.53-.54c.3.39.61.8.94,1.21.32.41.64.81.94,1.2s.57.74.81,1.05.43.56.57.75c-.07.26-.2.46-.4.6-.2.14-.41.22-.64.22-.28,0-.5-.07-.66-.2s-.32-.32-.49-.55l-2.59-3.74Z"/>
    <path class="st6" d="M41.02,16.85c-1.12,0-2.01-.22-2.64-.66-.64-.44-.96-1.09-.96-1.95,0-.76.25-1.35.75-1.76.5-.41,1.21-.65,2.12-.75l2.42-.24v-.38c0-.51-.17-.88-.5-1.11s-.79-.35-1.37-.35c-.46,0-.91.06-1.34.19-.43.13-.81.27-1.15.43-.12-.09-.21-.21-.3-.35-.08-.14-.12-.28-.12-.43,0-.37.2-.65.61-.83.32-.15.7-.26,1.12-.34s.86-.11,1.31-.11c1.08,0,1.94.23,2.57.7.64.47.96,1.21.96,2.22v4.05c0,.27-.06.48-.17.63-.12.15-.28.28-.49.4-.31.17-.71.32-1.19.45s-1.02.19-1.63.19ZM41.02,15.4c.41,0,.76-.04,1.05-.12.3-.08.51-.16.63-.24v-2.21l-1.89.19c-.53.03-.93.15-1.2.34-.27.19-.4.47-.4.84s.15.66.44.88c.3.21.75.32,1.36.32Z"/>
    <path class="st0" d="M48.71,13.02l-1.83-.16v-7.56c.07-.02.18-.05.34-.09.16-.04.32-.05.49-.05.34,0,.59.06.75.19.16.13.24.35.24.66v7.01ZM46.88,11.94l1.83.16v4.45c-.08.04-.2.07-.35.1-.15.03-.31.04-.49.04-.34,0-.59-.06-.75-.19s-.24-.34-.24-.64v-3.91ZM49.56,13.04l-1.23-.87,3.96-3.88c.36.01.65.1.87.26.22.16.33.37.33.63,0,.21-.07.4-.21.57s-.35.37-.63.6l-3.1,2.7ZM48.35,12.45l1.37-.7,4.21,3.88c-.04.34-.14.6-.3.79-.17.19-.4.29-.7.29-.22,0-.43-.06-.62-.17-.19-.12-.39-.29-.58-.52l-3.37-3.56Z"/>
    <path class="st22" d="M61.6,14.34c0,.78-.29,1.39-.87,1.83-.58.44-1.42.66-2.52.66-.9,0-1.65-.14-2.23-.41-.58-.27-.87-.61-.87-1.02,0-.19.04-.35.13-.5s.21-.27.36-.35c.32.21.7.4,1.12.57.42.17.91.26,1.45.26,1.07,0,1.6-.35,1.6-1.04,0-.29-.09-.52-.27-.7-.18-.18-.46-.31-.84-.39l-1.18-.3c-.79-.19-1.37-.47-1.74-.85-.37-.38-.56-.88-.56-1.5,0-.68.28-1.26.83-1.72.56-.46,1.36-.7,2.42-.7.54,0,1.03.06,1.45.17.42.11.76.26,1,.46s.37.42.37.68c0,.19-.04.35-.12.49-.08.14-.19.24-.33.31-.14-.08-.32-.17-.56-.28-.23-.1-.5-.19-.79-.26-.3-.07-.6-.1-.91-.1-.48,0-.85.08-1.14.24-.28.16-.43.4-.43.71,0,.22.08.41.24.57s.43.28.8.37l1.03.26c.87.2,1.51.5,1.93.91.42.41.63.95.63,1.63Z"/>
    <path class="st16" d="M65.39,12.92h-1.83v-7.62c.07-.02.18-.05.34-.09.16-.04.32-.05.49-.05.34,0,.59.06.75.19.16.13.24.35.24.66v6.9ZM63.56,11.99h1.83v4.56c-.08.04-.2.07-.35.1-.15.03-.31.04-.49.04-.34,0-.59-.06-.75-.19s-.24-.34-.24-.64v-3.86ZM70.88,13.09h-1.84v-1.58c0-.64-.17-1.1-.51-1.4-.34-.3-.79-.44-1.33-.44-.42,0-.8.08-1.16.24-.35.16-.66.35-.91.57l-.19-1.48c.28-.19.63-.37,1.07-.54.44-.17.93-.26,1.49-.26,1.01,0,1.83.27,2.45.8.63.53.94,1.35.94,2.43v1.65ZM69.04,12.01h1.84v4.54c-.08.04-.2.07-.36.1-.16.03-.32.04-.48.04-.35,0-.6-.06-.77-.19s-.24-.34-.24-.64v-3.84Z"/>
    <path class="st21" d="M76.36,16.85c-1.12,0-2.01-.22-2.64-.66-.64-.44-.96-1.09-.96-1.95,0-.76.25-1.35.75-1.76s1.21-.65,2.12-.75l2.42-.24v-.38c0-.51-.17-.88-.5-1.11s-.79-.35-1.37-.35c-.46,0-.91.06-1.34.19-.43.13-.81.27-1.15.43-.12-.09-.21-.21-.3-.35-.08-.14-.12-.28-.12-.43,0-.37.2-.65.61-.83.32-.15.7-.26,1.12-.34s.86-.11,1.31-.11c1.08,0,1.94.23,2.57.7.64.47.96,1.21.96,2.22v4.05c0,.27-.06.48-.17.63-.12.15-.28.28-.49.4-.31.17-.71.32-1.19.45s-1.02.19-1.63.19ZM76.36,15.4c.41,0,.76-.04,1.05-.12.3-.08.51-.16.63-.24v-2.21l-1.89.19c-.53.03-.93.15-1.2.34-.27.19-.4.47-.4.84s.15.66.44.88c.3.21.75.32,1.36.32Z"/>
    <path class="st25" d="M89.5,11.25v1.72h-1.83v-1.65c0-.57-.16-.98-.49-1.25-.32-.27-.75-.4-1.29-.4-.39,0-.75.05-1.07.16-.32.1-.59.22-.83.35v2.8h-1.83v-2.85c0-.27.05-.48.16-.65.1-.17.28-.33.52-.48.32-.21.75-.39,1.28-.55s1.12-.23,1.76-.23c1.14,0,2.02.25,2.65.76.63.5.95,1.27.95,2.29ZM82.18,12.06h1.83v4.49c-.08.04-.2.07-.35.1-.15.03-.31.04-.49.04-.34,0-.59-.06-.75-.19-.16-.13-.24-.34-.24-.64v-3.79ZM87.68,12.06h1.83v4.49c-.07.04-.18.07-.34.1-.16.03-.32.04-.5.04-.34,0-.58-.06-.75-.19s-.24-.34-.24-.64v-3.79Z"/>
    <path class="st15" d="M94.98,16.85c-1.12,0-2.01-.22-2.64-.66-.64-.44-.96-1.09-.96-1.95,0-.76.25-1.35.75-1.76s1.21-.65,2.12-.75l2.42-.24v-.38c0-.51-.17-.88-.5-1.11s-.79-.35-1.37-.35c-.46,0-.91.06-1.34.19-.43.13-.81.27-1.15.43-.12-.09-.21-.21-.3-.35-.08-.14-.12-.28-.12-.43,0-.37.2-.65.61-.83.32-.15.7-.26,1.12-.34s.86-.11,1.31-.11c1.08,0,1.94.23,2.57.7.64.47.96,1.21.96,2.22v4.05c0,.27-.06.48-.17.63-.12.15-.28.28-.49.4-.31.17-.71.32-1.19.45s-1.02.19-1.63.19ZM94.98,15.4c.41,0,.76-.04,1.05-.12.3-.08.51-.16.63-.24v-2.21l-1.89.19c-.53.03-.93.15-1.2.34-.27.19-.4.47-.4.84s.15.66.44.88c.3.21.75.32,1.36.32Z"/>
    <path class="st8" d="M106.39,11.87h-1.88v-5.84c.08-.02.21-.05.37-.08.17-.03.33-.04.5-.04.35,0,.6.06.77.19.16.13.24.35.24.68v5.09ZM104.51,9.91h1.88v6.64c-.08.04-.2.07-.36.1-.16.03-.33.04-.51.04-.35,0-.6-.07-.77-.2s-.24-.36-.24-.67v-5.91ZM112.27,12.01h-6.76v-1.51h6.76v1.51ZM113.12,11.87h-1.88v-5.84c.08-.02.2-.05.37-.08.16-.03.33-.04.51-.04.35,0,.6.06.76.19.16.13.24.35.24.68v5.09ZM111.24,9.91h1.88v6.64c-.09.04-.22.07-.37.1-.16.03-.32.04-.5.04-.36,0-.62-.07-.77-.2-.16-.13-.24-.36-.24-.67v-5.91Z"/>
    <path class="st7" d="M123.55,12.52c0,.87-.17,1.63-.5,2.28-.34.65-.81,1.15-1.43,1.5-.62.35-1.35.53-2.18.53s-1.55-.18-2.17-.53-1.11-.85-1.44-1.5c-.34-.64-.5-1.41-.5-2.29s.17-1.66.51-2.3c.34-.64.83-1.13,1.45-1.49.63-.35,1.35-.53,2.17-.53s1.53.18,2.15.53c.62.35,1.1.85,1.44,1.5.34.64.51,1.41.51,2.29ZM119.43,9.66c-.68,0-1.23.25-1.63.76-.41.5-.61,1.2-.61,2.1s.2,1.59.59,2.09c.39.5.94.75,1.65.75s1.26-.25,1.66-.76.6-1.2.6-2.08-.2-1.59-.6-2.1c-.4-.5-.95-.76-1.66-.76Z"/>
    <path class="st2" d="M131.58,14.34c0,.78-.29,1.39-.87,1.83s-1.42.66-2.52.66c-.9,0-1.65-.14-2.23-.41s-.87-.61-.87-1.02c0-.19.04-.35.13-.5s.21-.27.36-.35c.32.21.7.4,1.12.57.42.17.91.26,1.45.26,1.07,0,1.6-.35,1.6-1.04,0-.29-.09-.52-.27-.7s-.46-.31-.84-.39l-1.18-.3c-.79-.19-1.37-.47-1.74-.85-.37-.38-.56-.88-.56-1.5,0-.68.28-1.26.83-1.72s1.36-.7,2.42-.7c.55,0,1.03.06,1.45.17.42.11.76.26,1,.46.24.2.37.42.37.68,0,.19-.04.35-.12.49-.08.14-.19.24-.33.31-.14-.08-.32-.17-.56-.28-.23-.1-.5-.19-.79-.26-.3-.07-.6-.1-.91-.1-.48,0-.86.08-1.14.24-.28.16-.43.4-.43.71,0,.22.08.41.24.57s.43.28.8.37l1.03.26c.87.2,1.51.5,1.93.91.42.41.63.95.63,1.63Z"/>
    <path class="st9" d="M133.39,5.94c0-.29.11-.54.32-.75.21-.21.48-.31.79-.31s.59.1.79.31c.2.21.3.46.3.75s-.1.56-.3.77c-.2.21-.47.31-.79.31s-.58-.1-.79-.31c-.22-.21-.32-.46-.32-.77ZM135.41,12.92h-1.83v-4.42c.08-.04.2-.07.36-.1.16-.03.32-.04.5-.04.34,0,.58.06.74.19.16.13.23.35.23.66v3.7ZM133.58,11.99h1.83v4.56c-.07.04-.18.07-.33.1-.15.03-.31.04-.49.04-.34,0-.59-.06-.76-.19-.17-.13-.25-.34-.25-.64v-3.86Z"/>
    <path class="st12" d="M138.64,13.52l-.07-1.34,4.9-.7c-.04-.52-.23-.97-.57-1.33-.35-.37-.83-.55-1.44-.55-.65,0-1.18.23-1.61.69-.42.46-.64,1.11-.65,1.96l.03.68c.09.82.39,1.44.88,1.84.49.41,1.14.61,1.94.61.49,0,.93-.08,1.34-.23s.73-.32.97-.5c.15.09.27.21.36.35.09.14.13.29.13.45,0,.27-.13.5-.38.71-.25.21-.6.37-1.04.49s-.93.17-1.48.17c-.89,0-1.68-.17-2.36-.5-.68-.33-1.2-.82-1.57-1.48-.37-.65-.56-1.46-.56-2.41,0-.7.1-1.31.31-1.83s.49-.97.85-1.32c.36-.35.78-.62,1.27-.81.49-.19,1.01-.28,1.56-.28.74,0,1.39.15,1.96.46.56.31,1,.73,1.31,1.27s.47,1.16.47,1.87c0,.29-.07.5-.22.64-.14.14-.34.23-.6.26l-5.74.82Z"/>
    <path class="st27" d="M148.89,10.2v2.54h-1.83v-2.59c0-.28.06-.51.17-.7.12-.19.3-.36.56-.52.32-.21.75-.38,1.29-.52.53-.14,1.11-.21,1.72-.21,1.02,0,1.53.29,1.53.87,0,.15-.02.29-.06.41-.04.12-.09.22-.15.3-.12-.02-.26-.05-.44-.07s-.37-.04-.56-.04c-.46,0-.89.05-1.27.16-.38.1-.7.23-.96.37ZM147.06,11.99l1.83.16v4.4c-.08.04-.2.07-.35.1-.15.03-.31.04-.49.04-.34,0-.59-.06-.75-.19-.16-.13-.24-.34-.24-.64v-3.86Z"/>
    <path class="st19" d="M155.67,14.69c-.2-.37-.42-.86-.68-1.46s-.52-1.29-.79-2.05c-.27-.77-.54-1.58-.81-2.45.1-.13.24-.24.42-.32.17-.09.36-.13.56-.13.25,0,.47.06.63.18s.3.33.39.63c.31.93.64,1.85.98,2.76.34.92.71,1.86,1.1,2.82h.07c.23-.5.47-1.1.7-1.8.24-.7.47-1.44.69-2.21.22-.77.41-1.5.56-2.2.12-.06.24-.1.37-.14.13-.03.27-.05.42-.05.25,0,.47.06.64.18s.26.31.26.57-.05.59-.15,1.03-.23.95-.41,1.52c-.17.57-.38,1.16-.61,1.77-.23.61-.48,1.22-.74,1.81-.26.59-.53,1.12-.79,1.6-.57,1.02-1.09,1.8-1.56,2.33-.47.53-.92.8-1.35.8-.32,0-.58-.09-.77-.28-.19-.19-.31-.41-.36-.66.25-.22.53-.5.83-.83s.59-.69.87-1.07.51-.75.7-1.1c-.2-.06-.39-.17-.57-.34-.18-.17-.39-.48-.61-.93Z"/>
    <path class="st24" d="M168.99,14.34c0,.78-.29,1.39-.87,1.83s-1.42.66-2.52.66c-.9,0-1.65-.14-2.23-.41-.58-.27-.87-.61-.87-1.02,0-.19.04-.35.13-.5s.21-.27.36-.35c.32.21.7.4,1.12.57.42.17.91.26,1.45.26,1.07,0,1.6-.35,1.6-1.04,0-.29-.09-.52-.27-.7s-.46-.31-.84-.39l-1.18-.3c-.79-.19-1.37-.47-1.74-.85-.37-.38-.56-.88-.56-1.5,0-.68.28-1.26.83-1.72s1.36-.7,2.42-.7c.55,0,1.03.06,1.45.17.42.11.76.26,1,.46.24.2.37.42.37.68,0,.19-.04.35-.12.49-.08.14-.19.24-.33.31-.14-.08-.32-.17-.56-.28-.23-.1-.5-.19-.79-.26-.3-.07-.6-.1-.91-.1-.48,0-.86.08-1.14.24-.28.16-.43.4-.43.71,0,.22.08.41.24.57s.43.28.8.37l1.03.26c.87.2,1.51.5,1.93.91.42.41.63.95.63,1.63Z"/>
  </g>
  <g>
    <path class="st26" d="M8.76.48s.13.03.15-.05c.03-.11-.02-.28,0-.4-.6-.08-.95.04-1.49.22-.08.03-.2-.02-.28,0-.05.02-.69.58-.78.68-.24.27-.45.62-.56.9-.14.38-.34,1.07-.31,1.42.03.44.15.79.26,1.17.04.13-.06.53.27.53,0,.01.13.19.15.23,0,.04.01.13,0,.15-.05.07-.28.12-.23.3.1-.01.35,0,.38.11.04.17-.61.26-.19.34.1.02.22.12.11.23-.05.05-.83-.13-1.01-.12-.16,0-.48.11-.66.16-.12.04-.27-.01-.23.19-.08,0-.15,0-.23,0-.01,0-.07-.09-.18-.08-.14.01-.22.15-.35.2-.33.12-.17-.04-.46.22-.13.11-.28.08-.23.3.06.29.93.39,1.23.5.05.02.04.08.21.14.12.41.41.8.3,1.23-.02.09-.24.09-.29.26-.05.16.01.35-.02.51-.02.09-.43.83-.47.86-.05.03-.17,0-.2.02-.04.04,0,.28-.01.37-.48.29-.56.77-.87.99-.12.09-.27.04-.33.08-.11.08,0,.34-.05.44,0,.02-.24.34-.27.38-.11.14-.12-.12-.23.38,0,0-.07.07-.08.08-.08.03-.21-.05-.34.07-.02.02-.32.48-.33.51-.01.06.06.09.06.1,0,.05,0,.11,0,.15,0,.03,0,.07,0,.08-.13.07-.09-.11-.15.15,0,.02,0,.05,0,.08-.28-.01-.18.19-.23.3-.02.05-.05.05-.08.08-.76.66-.97,2.38-.68,3.35.02.06.11.05.14.12.21.57.37.84.92,1.15.39.63,1.94.99,2.7,1.05.18.01.33-.07.51-.07.2,0,.73.28.56-.17-.02-.05-.53-.82-.59-.88-.02-.03-.05-.05-.08-.08-.03-.11-.05-.19-.08-.3.05-.04.05-.1.08-.15.13-.33.03-.24,0-.45-.02-.12-.08-.29-.08-.38.14.03.19-.08.23-.18.69-1.63,1.71-2.77,2.57-4.28l.38-.08c.03-.15-.09-.22-.23-.23.1-.18.21-.35.3-.53.25,0,.2-.14.23-.3,0-.02,0-.05,0-.08.25.05.12-.13.15-.3.01-.08,0-.17.08-.23.09-.06.09.12.15-.15.02-.08.04-.35.08-.38.02-.02.13.02.15,0,.05-.05-.07-.14-.08-.15,0-.12.04-.38.15-.45.03-.02.13.02.15,0,.05-.05-.07-.14-.08-.15-.02-.29.14-.7.15-1.02.02-.36-.09-.74-.08-1.02,0,0,.12-.11.08-.15-.02-.02-.13.02-.15,0,0,0,0-.12,0-.15,0,0,.13-.08.07-.14-.03-.03-.13,0-.14,0-.02-.02-.21-.43-.3-.53.08-.32-.22-.25-.29-.32s.06-.27-.24-.21l.23-.23s.05.05.08.08c.01.02-.03.11,0,.14.04.04.16,0,.22,0,.1.02.2.05.3.08.07.02.11.06.15.08-.06.3.26.42.45.23.07.03.15.04.23.08l.21.36c.81.26,1.58.66,2.37.96.19.07.69.03.51.33-.02.03-.42.26-.5.34-.04.04,0,.12-.02.13-.05.05-.1.1-.15.15-.16.02-.43,0-.38.23-.02,0-.05,0-.08,0-.09.03-.31.02-.37.09-.04.06,0,.17-.01.21,0,.02-.17.13-.3.38-.04.01-.11-.01-.15,0-.39.09-.18.07-.3.23-.12.14-.13.15-.3.23-.04.02-.15-.02-.23.04s-.06.17-.07.19c-.06.07-.11.1-.15.15-.32-.07-.25.21-.32.28-.2.2-.13-.07-.36.4-.05.11-.1.17-.15.3,0,.02,0,.05,0,.08-.52-.07-.38.1-.45.45-.02.1-.06.2-.08.3h-.3c-.04.12.06.22.08.3.02.08.07.28.08.3,0,.07.01.24,0,.3,0,0-.07.15-.08.15-.01.01-.11-.02-.15,0-.06.06.07.13.07.14.01.19.01.42,0,.61,0,.05-.12.16-.08.33.02.08.15.04.16.05.03.04.08.31.08.38,0,0-.11.07-.08.15h.23c0,.08,0,.15,0,.23,0,.01-.09.05-.05.22.24.9,2.16,2.69,3.03,2.98.18.06.19-.02.2-.02.05,0,.1,0,.15,0v.08c.01.09.09.07.15.08.05,0,.1,0,.15,0,.02.03.06.05.08.08.04.06-.03.14.13.21.06.03.45.14.53.15.06,0,.09-.06.1-.06.05,0,.1,0,.15,0v.23c.25-.07.48.12.67.14.12.01.16-.06.17-.06.05,0,.1,0,.15,0,.03,0,.05,0,.08,0-.02.33.29.15.38.15.05,0,.1,0,.15,0,.03,0,.05,0,.08,0,.16.38.37.16.53.15.08,0,.15,0,.23,0,.05,0,.1,0,.15,0,.03.42.45.16.61.15.1,0,.2,0,.3,0-.06.24.29.23.23,0,.1,0,.2,0,.3,0-.07.43.25.17.45.15.05,0,.1,0,.15,0,.3-.01.61,0,.91,0,.08,0,.15,0,.23,0,.26,0,.59.13.94.07.63-.11.81-.71.27-1.1-.58-.42-2.25-.74-3.02-1.06-1.28-.53-3.05-1.64-3.75-2.84-.06-.1-.35-.77-.32-.83.2-.1.33-.28.5-.41.56-.45,1.41-.82,1.9-1.28.09-.09.19-.05.14-.28.02,0,.05,0,.08,0,.22-.09.58-.17.61-.45.02,0,.05,0,.08,0,.35-.14.19-.18.3-.3.02-.03.06-.05.08-.08.48-.07.86-.48,1.06-.91.02-.03.05-.05.08-.08.4,0,.4-.37.56-.58.29-.39.33-.23.43-.78,0-.05,0-.1,0-.15.16.09.37-.55.38-.65.01-.11-.08-.17-.08-.18,0-.1,0-.2,0-.3.07,0,.13.04.15-.05.02-.07.02-.75,0-.79,0-.01-.11,0-.15,0,0-.03,0-.05,0-.08,0-.1,0-.2,0-.3,0-.01.09-.07.06-.24-.05-.26-.51-.98-.7-1.2-.16-.18-.34-.22-.42-.3-.41-.37-.2-.33-.83-.53-.02-.03.02-.13-.07-.19-.11-.07-.46-.15-.61-.19-.04-.01-.14.01-.15,0-.02-.02.02-.13,0-.15-.05-.05-.14.07-.15.08-.04,0-.11,0-.15,0,.03-.3-.23-.15-.3-.15-.05,0-.1,0-.15,0,.07-.37-.19-.18-.45-.23-.18-.03-1.58-.41-1.67-.45-.03-.02.09-.12-.15-.15-.09-.01-.35.02-.38,0-.05-.04.13-.12-.15-.15-.05,0-.1,0-.15,0,.03-.3-.33-.16-.45-.15-.04,0-.22,0-.23,0-.05-.05.13-.12-.15-.15-.39-.05-.43-.12-.76-.23,0-.13.03-.18-.11-.15l-.04.07s-.1,0-.15,0c-.06-.01-.21.02-.23,0-.06-.05.13-.05-.15-.15-.07-.03-.17-.05-.23-.08.05-.22-.02-.18-.14-.28-.13-.11-.72-.43-.76-.49-.02-.03-.01-.11,0-.14,0,0,.13-.08.07-.14-.03-.03-.13,0-.14,0-.04-.05-.01-.27-.23-.23,0-.05,0-.1,0-.15,0,0,0-.13,0-.15,0-.08,0-.15,0-.23h.08l.04.07s.02-.05.04-.07c.27-.25.17-.43.23-.53Z"/>
    <path class="st26" d="M8.57,1.16v.08s.05-.05,0-.08Z"/>
    <path class="st28" d="M.96,14.85c-.08.33.33.32.52.42.11.06.19.23.28.25.13.03.38-.23.56-.22-.3.44-.4.93-.45,1.44,0,.06-.22.5.04.45s.65-.89,1.25-.45c0,.22,0,.46,0,.68-.11.07-.14.18-.15.3-.02.15.01.31,0,.45,0,.05,0,.1,0,.15,0,.04-.08.17-.08.34,0,.33.12.64.08.98.02.09.12.04.15.05l.45.64c-.4-.02-.9-.15-1.3-.29-.31-.11-.83-.34-1.12-.5-.64-1.03-1.22-1.5-.98-2.91l.6-1.71s.06-.03.08-.08h.08Z"/>
    <path class="st18" d="M13.08,5.47c.12.01.27-.02.38,0-.03.17.03.21.15.08.05,0,.11-.01.15,0-.06.17.16.22.3.23.05,0,.1,0,.15,0,.21.29.88.32.98.68.01.04,0,.1,0,.15-.21.17-.18.33-.33.5-.52.6-1.38,1.15-1.98,1.69-.04.04-.04.1-.04.15-1.26-.36-2.44-.91-3.64-1.44-.08-.04-.16-.05-.23-.08-.12-.05-.2-.14-.45-.23-.04-.01-.09-.06-.15-.08-.02-.27-.48-.36-.65-.48-.13-.1-.29-.32-.41-.42.36.02.66.33.97.43.23.08,1.16.28,1.43.32.55.08,2.12-.12,2.69-.25.17-.04,1.39-.54,1.44-.6.07-.09.08-.16.07-.27-.24,0-.47-.1-.69-.18-.12-.04-.49-.11-.44-.28.1,0,.2.07.3.08Z"/>
    <path class="st30" d="M17.62,8.04c.26-.11.51-.2.53-.53l.38.3s0,.05,0,.08c0,.25,0,.5,0,.76-.37-.01-.15.42-.15.53,0,.07,0,.16,0,.23-.2-.04-.15.1-.2.21-.11.23-.22.47-.33.7-.14.15-.88.34-.91.38-.09.13.22.39.15.45-.12.11-.34-.18-.43-.21-.27-.1-.25.13-.47.26-.36.21-.91.24-1.25.42-.17.09-.46.45-.63.5-.5.14-1.35.18-1.88.24-.44.06-1.18.45-1.25-.23.32,0,.53-.2.83-.3.13-.04.18.08.15-.23.05,0,.1,0,.15,0,.48,0,.56-.1.93-.25.76-.3,1.57-.6,2.3-.95.12-.06.27-.01.25-.24.04-.06.11-.05.15-.08.15-.02.5-.19.61-.27.14-.1.14-.25.15-.26.28-.24.5-.18.61-.68,0-.02,0-.05,0-.08.31.04.08-.16.08-.23,0-.03,0-.05,0-.08.03-.02.05-.05.08-.08l.08-.08c.06-.12.06-.18.08-.3Z"/>
    <path class="st11" d="M9.36,11.75c.25-.08.22.15.35.21.19.09.56-.03.48.32-.19.1-.7.75-.76.95-.04.15.03.1.11.11.36.06.25-.14.26-.15.3-.17.72-.17,1.06-.15.26.42.31.63.06,1.09-.1.18-.38.54-.52.73-.09.12-.07.18-.23.3-.04.03-.14-.03-.23.15-.43-.04-.78-.3-1.17-.46-.16-.07-.33-.05-.49-.12-.3-.12-.27-.42-.54-.49.01-.06,0-.23,0-.3.11-.1.13-.25.15-.38,0-.05,0-.1,0-.15.25,0,.29-.5.53-.68,0-.02,0-.05,0-.08.06-.03.06-.13.08-.15.21-.24.59-.54.83-.76Z"/>
    <path class="st18" d="M4.14,13.64c-.22.35-.29.21-.38.3-.01.01-.06.23-.15.34-.21.25-.59.31-.53.79.25-.03.48.06.72.08.27.02,1.78-.07,1.85,0,.03.04,0,.1,0,.14,0,.02,0,.05,0,.08-.23-.03-.12.03-.15.15-.09.35-.12.2-.23.36-.38.56-1.06,1.53-1.06,2.21,0,.08.06.26.08.38h-.15c-.07-.42-.16-.24-.38-.34-.14-.06-.35-.23-.48-.19-.11.03-.09.28-.27.22.01-.15-.02-.31,0-.45.38-.04.15-.23.15-.3,0-.22,0-.46,0-.68,0-.05.14-.21-.01-.37-.58-.13-.83.11-1.28.37.06-.51.15-.99.45-1.44s1-1,1.44-1.36c.14-.11-.01-.13.38-.3.1-.16.51-.54.68-.68.22-.17.59-.36.83-.53.03.21-.04.22-.17.32-.47.37-.79.65-1.34.89Z"/>
    <path class="st14" d="M15.58,6.15l.16.05c-.05.5,0,.86-.12,1.39-.03.12-.16.23-.17.35-.01.11.08.22.04.35-.04.16-.3.24-.4.37-.39.47-.61.77-1.16,1.11-.66.41-.84.14-1.43.17-.15,0-.25.19-.39.21-.12.01-.22-.13-.35-.12-.03,0-.54.19-.58.21v-.23s.05,0,.08,0c.24-.07.21-.06.38-.23.05-.05.1-.1.15-.15.47-.02.72-.46,1.14-.53.03-.07-.08-.13-.08-.15,0-.05,0-.11.04-.15.6-.54,1.46-1.09,1.98-1.69.15-.17.12-.34.33-.5.01-.01.1.03.14-.01.05-.05,0-.18.01-.21.04-.07.14-.17.15-.23h.08Z"/>
    <path class="st28" d="M10.8,14.78c.16.06.23.31.55.23.06-.01,0-.2.48-.16.07,0,.32.14.33.16.01.02,0,.1,0,.15-.47.08-.94.64-1.29.98-.07.06-.07.14-.08.15-.02.02-.06.07-.08.08-.27.16-.43.28-.62.63-.16.3-.34.61.02.81.25.71,1.09.68,1.67.83.28.07.64.25.83.3-.19.36-.05.68.15.98l-.08.08s-.1,0-.15,0-.1,0-.15,0c.05-.26-.15-.1-.33-.15-.15-.04-.25-.17-.42-.15-.01-.03-.06-.05-.08-.08-.06-.1.11-.11-.15-.15-.02,0-.05,0-.08,0s-.05,0-.08,0c-.05,0-.1,0-.15,0-.43-.42-1.35-.7-1.59-1.29-.14-.34-.17-.84-.15-1.21.23.05.13-.12.15-.3,0-.05,0-.1,0-.15.16.03.17-.09.23-.19.27-.45.74-1.07.91-1.48,0-.02,0-.05,0-.08.05,0,.12-.01.15,0Z"/>
    <path class="st3" d="M2.62,12.81c0,.39.35-.04.43-.06.45-.13.71.13.89.13.25,0,.51-.49.87.08-.18.14-.58.52-.68.68-.39.17-.24.19-.38.3-.43.36-1.13.9-1.44,1.36-.17-.01-.43.24-.56.22-.09-.02-.17-.19-.28-.25-.19-.1-.61-.1-.52-.42.01-.05.11-.18.15-.3,0-.02,0-.05,0-.08.16.02.17,0,.15-.15,0,0,0-.05,0-.08.22.05.12-.1.15-.15.05-.08.1-.15.15-.23.15,0,.22-.08.23-.23.03-.02.05-.05.08-.08.1-.11.13-.2.15-.23.04-.05.1-.09.15-.15.07-.07.14-.13.23-.23.11-.13.22-.14.23-.15Z"/>
    <path class="st10" d="M17.85,10.31s0,.05,0,.08,0,.05,0,.08l-.08.15c-.03.05-.03.09-.08.15.02-.02-.01-.08-.04-.08-.08,0,0,.11.04.08-.09.13-.37.51-.45.61-.02.03-.05.05-.08.08-.13.14-.59.39-.76.61,0-.15.06-.26-.11-.23-.13.02.03.21.04.23.04.18-.11.15-.23.3-.02.02-.05.05-.08.08-.06.01-.2-.02-.23,0-.01.01-.05.25-.08.3-.02,0-.06,0-.08,0-.17.08-.36.15-.53.23.02-.22.47-.42.68-.53l.3-.45c-.38-.1-.6.11-.89.21-.37.12-1.28.49-1.57.55-.2.04-1.2.17-1.36.16-.18,0-.27-.16-.37-.16-.1,0-.19.13-.31.15-.24.04-.61-.25-.64.15-.02,0-.05,0-.08,0-.34-.02-.76-.02-1.06.15l-.08-.04c-.01-.21.39-.35.44-.43.05-.07,0-.15.02-.21.62-.17,1.15-.72,1.82-.76v.08c-.3.1-.51.3-.83.3.07.68.81.28,1.25.23.53-.07,1.38-.1,1.88-.24.18-.05.46-.41.63-.5.34-.18.89-.21,1.25-.42.22-.13.2-.35.47-.26.1.03.31.32.43.21.07-.07-.24-.32-.15-.45.03-.04.77-.23.91-.38Z"/>
    <path class="st13" d="M7.77,14.25c.27.06.23.36.54.49.16.07.33.05.49.12.39.16.74.42,1.17.46-.04.09-.11.36-.15.45-.03.08-.07.22-.08.23-.06.06-.07-.14-.15.15-.04.13-.06.25-.08.38,0,.05,0,.1,0,.15-.23-.05-.14.11-.15.3-.02.37.01.87.15,1.21-.79-.34-1.16-1.21-1.59-1.89,0-.08,0-.15,0-.23,0-.05,0-.1,0-.15-.03-.18-.13-.29-.15-.38s-.08-.31-.08-.38c0-.22.13-.2,0-.61-.01-.04,0-.1,0-.15,0,0,.07-.14.08-.15Z"/>
    <path class="st17" d="M7.77,1.39l.57-.68c.23-.04.04.21.04.3,0,.08,0,.15,0,.23l-.08.11.08.04s0,.1,0,.15c.02.18-.01.3.23.3,0,.02,0,.05,0,.08.08.47.58.74.98.91.06.03.15.05.23.08-.02.16,0,.17.15.15.02.02.17-.01.23,0-.04.19.09.16.21.21.55.24,1.81.74,2.37.78.05,0,.1,0,.15,0,.04.03.12.14.15.15,0,.33-.58.25-.79.22-.81-.1-1.28-.26-1.99-.65-.27-.15-.51-.33-.78-.51-.19-.12-.41-.17-.57-.34-.14-.15-.18-.43-.2-.44-.04-.04-.2,0-.28-.06-.15-.09-.26-.28-.46-.26.06.16-.06.29-.08.38l-.15-.23c0-.1,0-.2,0-.3.34.1.35-.39,0-.3,0-.1,0-.2,0-.3Z"/>
    <path class="st23" d="M14.97,13.19c.06.22-.05.19-.14.28-.49.46-1.34.83-1.9,1.28-.17.13-.3.32-.5.41-.03.05.25.72.32.83.7,1.19,2.47,2.3,3.75,2.84.78.32,2.45.65,3.02,1.06.54.39.36.98-.27,1.1-.36.06-.68-.06-.94-.07.04-.12.11-.14.23-.15.31-.03,1.02.14,1.12-.28.07-.29-.41-.54-.63-.63-2.18-.91-3.78-.99-5.64-2.8-.48-.47-.83-1.04-1.21-1.59.01-.07,0-.22,0-.3,0-.05.01-.13,0-.15.14,0,.23-.08.34-.15.58-.39,1.7-1.36,2.24-1.59.07-.03.15-.04.23-.08Z"/>
    <path class="st14" d="M8.08,7.59c.09.1.28.51.3.53l.08.15s0,.15,0,.15l.08.15c-.01.28.1.66.08,1.02-.02.32-.18.73-.15,1.02l-.08.15c-.11.07-.16.33-.15.45l-.08.15s-.06.3-.08.38c-.14-.03-.18.01-.15.15-.08.06-.06.15-.08.23-.17.05-.13.18-.15.3,0,.02,0,.05,0,.08-.22-.05-.16.17-.23.3-.09.18-.2.35-.3.53-.06.11-.11.22-.15.3-.86,1.51-1.89,2.65-2.57,4.28-.04.1-.09.21-.23.18,0-.68.68-1.65,1.06-2.21.11-.16.14-.01.23-.36.22.02.13-.02.15-.15,0-.02,0-.05,0-.08.19.04.15-.1.21-.2.67-1.05,1.43-2.19,1.83-3.36.4-.38.6-1.49.68-2.04.03-.19.2-.46,0-.68,0-.07,0-.15,0-.23-.03-.7-.55-1.23-1.06-1.59-.03-.02-.05-.09-.13-.13-.14-.08-.38-.02-.33-.24.52.17.82.33,1.21.76Z"/>
    <path class="st3" d="M12.77,18.94l.11.08.04-.08c.07,0,.16-.01.23,0,0,.04.04.07.08.08.25.04.57-.01.83,0,.28.25.08.18.08.49,0,.26,0,.53,0,.79h-.15c-.13,0-.25,0-.38,0-.03,0-.05,0-.08,0,.04-.3-.25-.15-.3-.15-.19-.01-.26-.05-.38-.08l.07-.04c-.02-.06-.13-.08-.15-.11-.2-.31-.34-.62-.15-.98.04.01.11,0,.15,0Z"/>
    <path class="st4" d="M6.18,5.32c.07.13.09.15.23.15.05,0,.1,0,.15,0,0,.05,0,.11,0,.15,0,0-.13.1-.08.15.02.02.12-.02.15,0,.1.05.09.07.15.15.37.54.64.5.98.91l-.23.23c.31-.07.18.14.24.21s.36,0,.29.32c-.39-.42-.69-.59-1.21-.76-.02,0-.05,0-.08,0,.06-.14-.19-.25-.31-.27-.19-.04-.21.04-.22.04-.05,0-.1,0-.15,0,.06-.22-.37-.22-.49-.23-.5-.03-.81.15-1.25.15-.04-.2.1-.15.23-.19.18-.05.49-.16.66-.16.18,0,.96.18,1.01.12.1-.1-.01-.21-.11-.23-.42-.08.23-.16.19-.34-.02-.11-.28-.13-.38-.11-.05-.18.17-.23.23-.3Z"/>
    <path class="st10" d="M4.14,19.01c.01.05.07.07.08.08.03.12.05.19.08.3,0,.02,0,.05,0,.08.1.33.14.61.38.91-.58-.02-1.01-.47-1.51-.68-.03-.01-.13.04-.15-.05.04-.33-.08-.65-.08-.98,0-.17.08-.3.08-.34.2.79.31.88,1.14.68Z"/>
    <path class="st14" d="M4.37,6.53c.44,0,.75-.18,1.25-.15.12,0,.54,0,.49.23-.72,0-1.34.05-2.05.15-.01.18-.03.13.11.15.34.04.62-.04.98.08.48.16.85.56.87,1.06l-.53-.56c-.42-.23-.85-.31-1.33-.27-.23.02-.19-.04-.19.23-.25-.15-.44-.33-.76-.34.21-.34.67-.28.91-.57.08,0,.15,0,.23,0Z"/>
    <path class="st17" d="M17.17,5.7s.05.05.08.08c.02.02,0,.13.07.19s.19.02.23.04c.18.09.11.17.15.23.06.1.09.31.3.3.25.35.24.28.3.68l-.07.04.07.04s.2.15.23.23c0,.1,0,.2,0,.3l-.38-.3c-.02.33-.27.41-.53.53.07-.72-.04-1.28-.4-1.9-.09-.15-.6-.45-.05-.44Z"/>
    <path class="st1" d="M.81,14.93l-.6,1.71c-.23,1.41.34,1.88.98,2.91.29.16.81.39,1.12.5.4.14.9.27,1.3.29l-.45-.64c.5.21.93.66,1.51.68-.24-.3-.28-.57-.38-.91h.08c.06.06.57.84.59.88.17.45-.36.17-.56.17-.18,0-.33.09-.51.07-.76-.06-2.31-.43-2.7-1.05-.55-.3-.7-.58-.92-1.15-.02-.06-.12-.06-.14-.12-.3-.97-.09-2.69.68-3.35Z"/>
    <path class="st30" d="M14.29,19.01c.38.03.21.14.61.08.05,0,.1,0,.15,0l.08.3c-.24.06-.24.33-.23.53.03.4.31.49.68.53l-.23.15c-.07-.01-.15,0-.23,0-.05,0-.1,0-.15,0,.02-.33-.29-.15-.38-.15-.13,0-.25,0-.38,0-.03,0-.05,0-.08,0,0-.05,0-.1,0-.15,0-.26,0-.53,0-.79,0-.31.2-.25-.08-.49.08,0,.15,0,.23,0Z"/>
    <path class="st23" d="M6.03,4.94c-.34,0-.23-.4-.27-.53-.11-.37-.23-.72-.26-1.17-.03-.35.17-1.04.31-1.42.1-.28.31-.63.56-.9.09-.1.72-.66.78-.68.08-.02.2.02.28,0,.53-.18.89-.3,1.49-.22-.01.13.03.29,0,.4-.02.08-.15.04-.15.05l-.05-.07c-.31,0-.54.29-.78.44.04-.1.27-.49.23-.53-.95.05-1.6.57-2.04,1.36-.08.14-.08.12-.15.3-.11.28-.19.44-.23.76-.01.1,0,.2,0,.3s0,.2,0,.3c0,.15-.02.31,0,.45.02.19.1.74.3.68,0,.05,0,.1,0,.15.02.09-.02.22,0,.3Z"/>
    <path class="st23" d="M12.85,8.95s.1.08.08.15c-.41.07-.67.51-1.14.53,0,0-.02-.09.02-.13.07-.07.48-.31.5-.34.18-.3-.32-.26-.51-.33-.79-.3-1.56-.7-2.37-.96l-.21-.36c1.19.52,2.38,1.07,3.64,1.44Z"/>
    <path class="st23" d="M9.52,18.18c.24.58,1.16.87,1.59,1.29-.01,0-.02.08-.2.02-.87-.29-2.78-2.08-3.03-2.98-.05-.18.05-.21.05-.22.43.68.8,1.55,1.59,1.89Z"/>
    <path class="st18" d="M17.47,20.53s.14.06.23.08c.02,0,.05,0,.08,0,.09.02.21-.01.3,0v.3c-.3,0-.61-.01-.91,0,.02-.21,0-.14-.15-.15s-.31,0-.45,0c-.1,0-.2,0-.3,0-.08,0-.15,0-.23,0-.1,0-.2,0-.3,0-.08-.05-.31-.14-.38-.15l.23-.15c.59.06,1.29,0,1.89.08Z"/>
    <path class="st4" d="M4.14,6.53c-.24.29-.7.23-.91.57.32.01.5.19.76.34.06.04.35.15.36.16.05.05,0,.16.01.22.06.02.13-.05.23.05.44.44.17,1.64-.08,2.15-.03.05-.05.1-.08.15-.03.07-.21.27-.3.45-.01.02.01.06,0,.08-.21-.06-.22.29-.32.36-.05.04-.12,0-.13.02,0,.1-.06.2-.08.3-.11.12-.18.31-.23.38-.02.02-.1.06-.23.23-.19.25-.39.64-.53.83,0,.01-.12.02-.23.15-.06.01-.21-.02-.23,0s.01.17,0,.23c-.05.06-.11.11-.15.15h-.08c.11-.5.11-.24.23-.38.03-.04.26-.36.27-.38.04-.1-.06-.36.05-.44.06-.04.21,0,.33-.08.31-.22.38-.7.87-.99,0-.1-.03-.33.01-.37.02-.02.15.01.2-.02.04-.03.45-.77.47-.86.03-.16-.03-.35.02-.51.05-.17.27-.17.29-.26.11-.43-.18-.82-.3-1.23-.17-.07-.16-.12-.21-.14-.3-.11-1.17-.22-1.23-.5-.05-.22.1-.19.23-.3.29-.26.13-.1.46-.22.12-.05.21-.18.35-.2.11-.01.17.08.18.08Z"/>
    <path class="st14" d="M10.95,10.39c-.14.08-.17.22-.45.3-.12.22-.17.28-.38.45-.24.2-.51.38-.76.61s-.62.52-.83.76h-.08c.05-.13.1-.2.15-.3.27-.18.47-.44.68-.68.04-.05.09-.08.15-.15.15,0,.25-.1.3-.23.17-.07.19-.09.3-.23.15,0,.25-.1.3-.23.04-.01.11.01.15,0,.13-.25.29-.35.3-.38l.15.08Z"/>
    <path class="st1" d="M10.35,3.05s.09.05.15.08c.32.11.37.18.76.23-.02.16,0,.17.15.15,0,0,.18,0,.23,0,.11.18.29.13.45.15.05,0,.1,0,.15,0-.02.16,0,.17.15.15.03.02.29-.01.38,0v.23c-.55-.04-1.82-.54-2.37-.78-.11-.05-.25-.01-.21-.21.05,0,.11-.01.15,0Z"/>
    <path class="st1" d="M8.76.48c-.06.1.04.28-.23.53h-.15c0-.09.19-.34-.04-.3l-.57.68c.03-.33.05-.28.15-.53.25-.16.48-.45.78-.44l.05.07Z"/>
    <path class="st1" d="M15.05,4.64c.05,0,.1,0,.15,0,.07.11.18.14.3.15.05,0,.11,0,.15,0l.15.08s.11-.01.15,0c-.09.1.4.36.45.38l-.08.15s-.33-.14-.44-.2c-.19-.11-.07-.21-.47-.25-.07,0-.15,0-.23,0-.08-.09-.26-.17-.38-.23v-.08s.17,0,.23,0Z"/>
    <path class="st1" d="M14.59,4.41v.08s-.05,0-.08,0c-.1,0-.2,0-.3,0-.05-.1-.16-.06-.23-.08-.12-.04-.12-.07-.3-.08-.09-.16-.24-.12-.38-.15-.07-.01-.17.02-.23,0-.03-.01-.11-.12-.15-.15v-.08c.09.05,1.48.42,1.67.45Z"/>
    <path class="st23" d="M17.17,11.45c-.2.42-.58.84-1.06.91.11-.15.26-.12.23-.3h.08c.16-.22.62-.47.76-.61Z"/>
    <path class="st14" d="M17.47,20.45c.23,0,.47-.02.7.02.06.01.43.13.36.28-.11.01-.19.03-.23.15-.08,0-.15,0-.23,0v-.3c-.1-.01-.21.02-.3,0l-.04-.07-.04.07c-.09-.01-.18-.07-.23-.08v-.08Z"/>
    <path class="st23" d="M16.64,5.24c.64.2.43.16.83.53.09.08.26.12.42.3.19.22.66.94.7,1.2.03.17-.06.23-.06.24-.03-.08-.21-.19-.23-.23,0-.02,0-.05,0-.08-.06-.4-.05-.33-.3-.68-.07-.09-.04-.31-.3-.3-.04-.06.03-.14-.15-.23-.05-.04-.07-.22-.08-.23-.03-.02-.17.01-.23,0-.02-.03-.05-.05-.08-.08-.23-.27-.33-.12-.53-.45-.06-.02-.17.02-.23,0s-.54-.28-.45-.38c.15.04.5.12.61.19.09.06.05.15.07.19Z"/>
    <path class="st1" d="M8.68,1.92s-.01.12,0,.14c.05.06.63.38.76.49.11.09.19.06.14.28-.4-.17-.9-.43-.98-.91h.08Z"/>
    <path class="st4" d="M1.87,13.42v.15s-.05.05-.08.08c-.09.09-.07-.03-.23.23-.05.08-.11.15-.15.23h-.15s-.08-.04-.06-.1c0-.03.31-.49.33-.51.13-.12.26-.04.34-.07Z"/>
    <path class="st20" d="M6.56,5.47c-.05,0-.1,0-.15,0,.03-.19-.18-.23-.23-.3-.02-.03-.15-.21-.15-.23-.02-.08.02-.21,0-.3.22.13.52.6.53.83Z"/>
    <path class="st17" d="M18.38,9.41c-.02.16-.12.29-.15.45,0,.05,0,.1,0,.15-.2.09-.12.41-.38.38,0-.02,0-.05,0-.08.1-.23.22-.47.33-.7.05-.11,0-.25.2-.21Z"/>
    <path class="st23" d="M18.23,10.01c-.1.56-.13.39-.43.78-.15.2-.15.57-.56.58.08-.1.36-.47.45-.61.04-.06.05-.1.08-.15s.05-.09.08-.15c0-.02,0-.05,0-.08.26.03.18-.29.38-.38Z"/>
    <path class="st23" d="M12.7,20s.08.06.15.08c.12.02.19.06.38.08l.15.15s-.05.08-.17.06c-.19-.02-.42-.21-.67-.14v-.23s.11,0,.15,0Z"/>
    <path class="st23" d="M18.23,9.86c.03-.17.13-.3.15-.45,0-.07,0-.15,0-.23l.15-.15s.09.07.08.18c-.01.1-.22.74-.38.65Z"/>
    <path class="st23" d="M11.64,19.69c.17-.02.27.11.42.15.18.05.39-.1.33.15,0,0-.04.06-.1.06-.08,0-.47-.12-.53-.15-.15-.07-.09-.15-.13-.21Z"/>
    <path class="st5" d="M8.46,12.73c-.24.18-.28.68-.53.68,0-.02,0-.05,0-.08.02-.1.05-.2.08-.3.18-.11.19-.36.45-.3Z"/>
    <path class="st23" d="M18.53,7.89s.14-.01.15,0c.02.03.02.71,0,.79-.02.09-.08.04-.15.05,0-.03,0-.05,0-.08,0-.25,0-.5,0-.76Z"/>
    <path class="st4" d="M11.18,10.01v.23s-.12.09-.23.15l-.15-.08s-.03-.15.01-.21c.06-.07.28-.07.37-.09Z"/>
    <path class="st23" d="M15.65,12.73c-.03.28-.38.36-.61.45v-.23s.06,0,.08,0c.17-.08.36-.15.53-.23Z"/>
    <path class="st23" d="M7.32,6.23c.11.1.28.33.41.42.17.12.63.22.65.48-.1-.03-.2-.05-.3-.08-.03-.11-.12-.15-.23-.15-.02-.03-.05-.05-.08-.08-.35-.41-.62-.37-.98-.91h.08c.1.13.39.24.45.3Z"/>
    <path class="st23" d="M8.99,7.44c-.2.19-.51.08-.45-.23.26.09.33.18.45.23Z"/>
    <path class="st23" d="M15.35,20.6c.07.01.3.1.38.15-.16,0-.57.27-.61-.15.07,0,.16-.01.23,0Z"/>
    <path class="st23" d="M17.01,20.75v.15c-.2.02-.52.28-.45-.15.15,0,.31-.01.45,0Z"/>
    <path class="st4" d="M8.46,12.58s0,.05,0,.08,0,.05,0,.08c-.27-.06-.28.19-.45.3.08-.36-.07-.52.45-.45Z"/>
    <path class="st14" d="M4.29,18.48c.03.21.13.12,0,.45h-.15c-.03-.13.02-.32,0-.45h.15Z"/>
    <path class="st17" d="M18.53,8.65s0,.05,0,.08c0,.1,0,.2,0,.3l-.15.15c0-.11-.22-.54.15-.53Z"/>
    <path class="st5" d="M7.7,15.16h-.08c.01-.19.01-.42,0-.61h.08c.13.4,0,.39,0,.61Z"/>
    <path class="st23" d="M14.59,20.45l.15.15c-.16,0-.37.23-.53-.15.13,0,.25,0,.38,0Z"/>
    <path class="st4" d="M7.17,13.34c.14,0,.25.07.23.23l-.38.08c.04-.08.09-.19.15-.3Z"/>
    <path class="st4" d="M11.64,3.5c.12-.01.48-.15.45.15-.16-.02-.35.03-.45-.15Z"/>
    <path class="st4" d="M7.93,13.34s0,.05,0,.08c0,.05,0,.1,0,.15l-.23.08c-.02-.09-.11-.18-.08-.3h.3Z"/>
    <path class="st23" d="M7.7,15.16c0,.07.05.29.08.38h-.08s-.13.03-.16-.05c-.05-.17.08-.28.08-.33h.08Z"/>
    <path class="st23" d="M13.98,20.3v.15c-.09,0-.4.18-.38-.15.12,0,.25,0,.38,0Z"/>
    <path class="st4" d="M9.29,11.52c-.21.24-.41.5-.68.68.22-.47.16-.2.36-.4.08-.08,0-.35.32-.28Z"/>
    <path class="st23" d="M14.59,4.41c.26.04.53-.15.45.23-.06,0-.21.01-.23,0-.05-.03.13-.12-.23-.15v-.08Z"/>
    <path class="st23" d="M16.03,12.43c-.11.12.05.16-.3.3.03-.06.06-.29.08-.3.03-.02.17.01.23,0Z"/>
    <path class="st23" d="M7.93,13.57c-.02.13-.04.28-.15.38,0-.02-.06-.22-.08-.3l.23-.08Z"/>
    <path class="st10" d="M15.05,12.96v.23s-.05,0-.08,0c-.08.04-.16.05-.23.08.01-.24.13-.24.3-.3Z"/>
    <path class="st18" d="M14.59,20.45c.09,0,.4-.18.38.15-.08,0-.15,0-.23,0l-.15-.15Z"/>
    <path class="st1" d="M8.61,1.76v.08c-.24,0-.21-.13-.23-.3.22-.04.19.18.23.23Z"/>
    <path class="st5" d="M7.93,15.91h-.15c0-.07-.04-.33-.08-.38h.08c.02.09.12.2.15.38Z"/>
    <path class="st23" d="M11.64,9.78c-.17.17-.14.16-.38.23-.05-.22.22-.21.38-.23Z"/>
    <path class="st4" d="M7.7,12.51c-.03.17.02.3-.23.3.06-.13,0-.35.23-.3Z"/>
    <path class="st23" d="M15.2,4.64c.08,0,.33-.15.3.15-.12,0-.23-.04-.3-.15Z"/>
    <path class="st1" d="M1.11,14.55c-.04.13-.14.25-.15.3h-.08c.05-.11-.05-.32.23-.3Z"/>
    <path class="st18" d="M13.23,20.15c.06,0,.34-.15.3.15-.05,0-.1,0-.15,0l-.15-.15Z"/>
    <path class="st4" d="M10.35,10.69c-.06.13-.15.22-.3.23.13-.15-.08-.13.3-.23Z"/>
    <path class="st4" d="M9.74,11.15c-.06.13-.15.22-.3.23.02-.02,0-.13.07-.19s.19-.02.23-.04Z"/>
    <path class="st4" d="M7.85,12.13c-.03.18.1.35-.15.3.02-.13-.02-.25.15-.3Z"/>
    <path class="st23" d="M6.41,5.47c-.14,0-.16-.03-.23-.15.01-.02,0-.11,0-.15.05.07.26.11.23.3Z"/>
    <path class="st4" d="M12.77,3.81c.24.03.12.14.15.15v.08c-.05,0-.1,0-.15,0v-.23Z"/>
    <path class="st23" d="M16.26,20.75c.07.23-.29.24-.23,0,.08,0,.15,0,.23,0Z"/>
    <path class="st23" d="M7.93,15.91s0,.1,0,.15h-.23c-.03-.08.07-.14.08-.15h.15Z"/>
    <path class="st4" d="M8.08,7.06c-.06-.01-.18.03-.22,0-.03-.03,0-.13,0-.14.11,0,.19.04.23.15Z"/>
    <path class="st1" d="M2.02,13.34s-.05.12-.15.23v-.15s.07-.07.08-.08h.08Z"/>
    <path class="st1" d="M8.38,1.39l-.08-.04.08-.11s0,.14,0,.15Z"/>
    <path class="st23" d="M8.61,1.76s.11-.02.14,0c.06.06-.07.13-.07.14h-.08s0-.05,0-.08v-.08Z"/>
    <path class="st4" d="M11.26,3.35c.28.04.1.11.15.15-.16.02-.17,0-.15-.15Z"/>
    <path class="st4" d="M8.23,11.22s.12.11.08.15c-.02.02-.13-.02-.15,0l.08-.15Z"/>
    <path class="st18" d="M14.14,20.3c0,.05,0,.1,0,.15-.05,0-.1,0-.15,0v-.15h.15Z"/>
    <path class="st4" d="M8.46,8.42s.13-.02.15,0c.05.04-.07.14-.08.15l-.08-.15Z"/>
    <path class="st1" d="M4.29,18.94c-.02.05-.03.11-.08.15,0,0-.07-.02-.08-.08,0-.02,0-.05,0-.08h.15Z"/>
    <path class="st4" d="M8.46,10.62s.12.1.08.15c-.02.02-.12-.02-.15,0l.08-.15Z"/>
    <path class="st23" d="M15.65,4.79s.1-.13.15-.08c.02.02-.02.13,0,.15l-.15-.08Z"/>
    <path class="st1" d="M1.41,14.1s.07.2-.15.15c0-.05,0-.1,0-.15h.15Z"/>
    <path class="st4" d="M12.24,3.66c.28.03.1.11.15.15-.16.02-.17,0-.15-.15Z"/>
    <path class="st4" d="M8.38,8.12s.11-.02.14,0c.06.06-.07.13-.07.14l-.08-.15Z"/>
    <path class="st23" d="M7.7,14.4s-.01.11,0,.15h-.08s-.13-.08-.07-.14c.03-.03.13,0,.15,0Z"/>
    <path class="st14" d="M17.01,20.75c.15.01.17-.05.15.15-.05,0-.1,0-.15,0v-.15Z"/>
    <path class="st4" d="M8.08,11.75c-.06.27-.06.09-.15.15-.02-.14.01-.18.15-.15Z"/>
    <path class="st18" d="M11.41,19.47c.26.05.1.05.15.15-.05,0-.1,0-.15,0v-.15Z"/>
    <path class="st23" d="M10.35,3.05l.04-.07c.14-.03.12.02.11.15-.06-.02-.12-.07-.15-.08Z"/>
    <path class="st1" d="M1.26,14.32c.02.16,0,.17-.15.15.06-.27.02-.08.15-.15Z"/>
    <path class="st1" d="M9.82,2.9c.28.1.09.1.15.15-.16.02-.17,0-.15-.15Z"/>
    <path class="st23" d="M11.41,19.54v.08c-.07,0-.14.01-.15-.08h.15Z"/>
    <path class="st5" d="M8.46,12.66s0-.05,0-.08,0-.05,0-.08h.08s-.02.12-.08.15Z"/>
    <path class="st18" d="M11.33,19.54h-.08v-.08s.05,0,.08,0v.08Z"/>
    <path class="st23" d="M8.46,1.01h.08s-.01.06-.04.07l-.04-.07Z"/>
    <path class="st14" d="M4.37,19.47h-.08s0-.05,0-.08c.03.02.05.05.08.08Z"/>
    <path class="st23" d="M8.57,1.16s.05.05,0,.08v-.08Z"/>
    <path class="st17" d="M3,18.18c.19.05.17-.19.27-.22.13-.04.35.13.48.19.22.1.3-.08.38.34.02.14-.03.32,0,.45,0,.02,0,.05,0,.08-.83.2-.93.11-1.14-.68,0-.05,0-.1,0-.15Z"/>
    <path class="st1" d="M1.87,16.74c.45-.26.7-.5,1.28-.37.15.15.01.32.01.37-.59-.43-.99.41-1.25.45s-.04-.39-.04-.45Z"/>
    <path class="st10" d="M3,17.73c.01-.12.04-.23.15-.3,0,.07.23.27-.15.3Z"/>
    <path class="st13" d="M5.88,2.75c.01.18.49.61.64.84.08.11.1.32.14.36.04.04.11,0,.13.02.05.03.09.05.15.08-.02.22.17.37.3.53,0,.01-.03.09.02.13.06.07.74.29.87.3.06,0,.09-.05.1-.05.08,0,.15,0,.23,0h.08c.05,0,.1,0,.15,0-.08.23.31.21.45.08.01-.01-.01-.06,0-.08.05,0,.1,0,.15,0-.1.32.3.25.57.23.1,0,.17-.08.18-.08.25-.01.51,0,.76,0,.1,0,.2,0,.3,0-.08.26.44.15.61.15.2,0,.4,0,.61,0,.03.04,0,.18.12.22.1.03.17-.07.18-.07.05,0,.1,0,.15,0-.05.17.33.24.44.28.22.08.45.18.69.18.01.11,0,.18-.07.27-.05.07-1.27.56-1.44.6-.57.14-2.14.33-2.69.25-.26-.04-1.19-.24-1.43-.32-.31-.1-.61-.42-.97-.43-.07-.06-.35-.17-.45-.3-.04-.05.05-.34-.23-.3h-.08s0-.1,0-.15c0-.24-.31-.7-.53-.83,0-.05,0-.1,0-.15-.04-.21-.07-.73-.3-.68-.02-.14,0-.31,0-.45.12-.03.11-.28,0-.3,0-.1-.01-.2,0-.3h.15Z"/>
    <path class="st30" d="M7.93,2.52c.02-.09.14-.22.08-.38.2-.02.31.17.46.26.09.05.24.02.28.06.02.02.06.29.2.44.15.17.38.22.57.34.27.17.51.36.78.51.71.39,1.18.55,1.99.65.2.03.8.11.79-.22.06.02.16-.01.23,0,.13.35.31.15.38.15.18,0,.18.04.3.08-.04.31.16.08.23.08.1,0,.2,0,.3,0-.02.28.21.18.3.23.12.06.3.13.38.23.03.04-.09.22.23.15.02.07.1.14.08.23-.06,0-.13-.02-.15.04-.01.12.14.38.15.49,0,.06,0,.16,0,.23-.16.02-.29,0-.45-.04-.39-.12-.48-.27-.84-.26-.05,0-.1,0-.15,0,.05-.2-.15-.18-.3-.23-.04-.01-.1,0-.15,0,0,0-.03-.05-.15-.08-.11-.02-.26.01-.38,0,.05-.24-.28-.21-.45-.23-.1,0-.2,0-.3,0-.05-.07-.56-.21-.67-.21-.17-.01-.23.06-.24.06-.1,0-.2,0-.3,0s-.2,0-.3,0c.08-.25-.51-.15-.76-.15s-.51,0-.76,0c-.05,0-.1,0-.15,0,.06-.06.17-.06.15-.15-.41.08-.26-.13-.4-.28-.06-.07-.32-.19-.44-.28-.16-.13-.1-.37-.45-.27v-.3s.14.01.15,0c.03-.05.07-.86-.23-.76,0-.12-.02-.27,0-.38Z"/>
    <path class="st17" d="M14.21,5.77c.36-.01.45.14.84.26.16.05.29.06.45.04,0,.03,0,.05,0,.08-.02.06-.12.15-.15.23l-.15.08c-.11-.36-.77-.39-.98-.68Z"/>
    <path class="st17" d="M12.62,5.24c.18.01.5-.01.45.23-.1,0-.21-.07-.3-.08-.05,0-.1,0-.15,0v-.15Z"/>
    <path class="st17" d="M13.76,5.55c.15.04.35.03.3.23-.14,0-.36-.06-.3-.23Z"/>
    <path class="st1" d="M15.35,6.38s.03.16-.01.21c-.04.04-.13,0-.14.01,0-.05.01-.11,0-.15l.15-.08Z"/>
    <path class="st17" d="M13.61,5.55c-.12.14-.18.1-.15-.08.13.02.14.07.15.08Z"/>
    <path class="st14" d="M16.48,9.41c.07-.01.17.02.23,0,0,.04.01.14,0,.15-.02.01-.13-.03-.21.02-.14.1-.4.42-.55.51-.04.02-.12.02-.15.08l-3.48,1.44c-.05,0-.1,0-.15,0-.16,0-.17-.04-.15.15-.67.03-1.2.58-1.82.76.01-.07.08-.14.08-.23.21-.13.25-.09.45-.3,1.49-.83,3.28-1.23,4.79-1.99.28-.14.7-.56.74-.59.03-.02.16.01.23,0Z"/>
    <path class="st17" d="M15.8,10.16c.02.22-.13.18-.25.24-.73.35-1.54.65-2.3.95-.36.14-.45.25-.93.25l3.48-1.44Z"/>
    <path class="st18" d="M16.64,5.24c.2.34.3.19.53.45-.55,0-.04.29.05.44.36.62.47,1.18.4,1.9-.01.13-.02.18-.08.3,0,.02-.05.05-.08.08-.03.03-.05.05-.08.08,0-.1,0-.2,0-.3.04-.87.2-.9-.23-1.74-.21-.41-.46-.78-.83-1.06l.08-.15c.06.02.17-.02.23,0Z"/>
    <path class="st5" d="M15.42,4.94c.41.04.29.14.47.25.11.06.4.18.44.2.38.28.62.65.83,1.06.09.3-.28.5-.3.72-.02.14.06.28.06.43,0,.26-.24.29-.25.5s.12.3.11.41-.16.28-.21.58c-.11.03-.33-.05-.42.07-.1.14-.05.28.12.23-.04.02-.46.44-.74.59-1.51.76-3.3,1.16-4.79,1.99.01-.01-.02-.1.02-.13.07-.08.36-.05.29-.21-.08-.17-.82-.08-.91-.49.21-.17.26-.23.38-.45.28-.08.32-.23.45-.3.1-.06.19-.13.23-.15.04-.02.55-.21.58-.21.13,0,.23.13.35.12.13-.01.23-.2.39-.21.59-.03.77.24,1.43-.17.54-.34.76-.65,1.16-1.11.1-.12.36-.2.4-.37.03-.13-.05-.25-.04-.35.01-.12.14-.23.17-.35.11-.53.07-.89.12-1.39l-.16-.05c.09-.12,0-.24,0-.3,0-.15,0-.3,0-.45l.07-.04s-.05-.03-.07-.04c-.02,0-.05,0-.08,0,.02-.09-.06-.16-.08-.23-.01-.04,0-.1,0-.15Z"/>
    <path class="st5" d="M17.39,8.5s0,.05,0,.08c-.1.04-.07.14-.08.23,0,.03,0,.05,0,.08-.23,0-.35.46-.61.53-.06.02-.16-.01-.23,0,.02-.1.06-.2.08-.3.6-.14.49-.5.83-.91,0,.1,0,.2,0,.3Z"/>
    <path class="st17" d="M17.32,8.88c-.11.5-.32.44-.61.68-.01,0,0,.16-.15.26-.11.08-.45.24-.61.27.15-.09.41-.41.55-.51.07-.05.18,0,.21-.02.01,0,0-.11,0-.15.26-.07.37-.53.61-.53Z"/>
    <path class="st17" d="M17.39,8.57c0,.06.23.26-.08.23,0-.08-.03-.19.08-.23Z"/>
    <path class="st17" d="M12.17,11.6c.03.31-.02.18-.15.23v-.08c-.02-.19,0-.15.15-.15Z"/>
    <path class="st17" d="M17.47,8.42s.07-.06.08-.08l-.08.08Z"/>
    <path class="st20" d="M10.12,11.15c.09.42.83.33.91.49.08.16-.21.13-.29.21-.03.04,0,.12-.02.13-.21.21-.24.18-.45.3-.02.01-.06-.01-.08,0,.09-.35-.29-.23-.48-.32-.13-.06-.11-.29-.35-.21.25-.23.51-.41.76-.61Z"/>
    <path class="st18" d="M10.65,14.85c-.17.41-.64,1.02-.91,1.48-.06.1-.06.22-.23.19.02-.13.04-.25.08-.38.16.02.17,0,.15-.15,0,0,.04-.15.08-.23.19-.12.3-.4.38-.61.16-.12.14-.18.23-.3h.23Z"/>
    <path class="st20" d="M11.11,13.04l.15.3c0,.19.03.44,0,.61l-.08.15c-.07.24-.14.24-.23.38-.24.01-.24.13-.3.3,0,.02,0,.05,0,.08h-.23c.14-.19.42-.55.52-.73.25-.46.2-.67-.06-1.09.03,0,.05,0,.08,0,.05,0,.11-.01.15,0Z"/>
    <path class="st5" d="M10.27,12.28c0,.08-.06.16-.08.23-.01.06.03.13-.02.21-.05.08-.45.22-.44.43l.08.04s.09.21-.26.15c-.09-.01-.15.04-.11-.11.06-.2.57-.85.76-.95.02-.01.06.01.08,0Z"/>
    <path class="st20" d="M10.2,15.16c-.08.21-.19.48-.38.61.04-.09.11-.37.15-.45.08-.18.18-.12.23-.15Z"/>
    <path class="st13" d="M7.7,11.75c-.41,1.17-1.16,2.31-1.83,3.36-.06.1-.02.24-.21.2,0-.04.02-.1,0-.14-.07-.08-1.58,0-1.85,0-.24-.02-.47-.11-.72-.08-.06-.48.33-.54.53-.79.09-.11.14-.33.15-.34.09-.09.15.05.38-.3.55-.24.87-.53,1.34-.89.13-.1.21-.11.17-.32.18-.13.35-.36.53-.45.03-.01.22-.08.23-.08.02,0,.11.27.34.23.07-.01.06-.19.17-.23.12-.04.28.07.43.06.02,0,.34-.2.35-.21Z"/>
    <path class="st13" d="M5.65,15.38c-.02.13.06.18-.15.15.03-.12-.08-.18.15-.15Z"/>
    <path class="st1" d="M15.58,6.15h-.08s0-.05,0-.08c0-.06,0-.16,0-.23h.08c0,.06.09.18,0,.3Z"/>
    <path class="st3" d="M10.95,13.04c.03-.4.39-.11.64-.15.12-.02.21-.15.31-.15.1,0,.2.15.37.16.16,0,1.16-.12,1.36-.16.29-.05,1.2-.43,1.57-.55.29-.09.51-.3.89-.21l-.3.45c-.21.11-.66.31-.68.53-.02,0-.05,0-.08,0-.17.06-.29.07-.3.3-.53.23-1.66,1.2-2.24,1.59-.11.07-.2.15-.34.15,0-.02-.26-.15-.33-.16-.47-.04-.41.14-.48.16-.33.08-.4-.16-.55-.23.09-.08.1-.23.15-.3.08-.13.15-.14.23-.38,0-.03.06-.06.08-.15.03-.17,0-.42,0-.61,0-.01.11-.06.07-.14,0-.01-.21-.16-.22-.16-.04-.01-.1,0-.15,0Z"/>
    <path class="st18" d="M12.17,15.16c0,.08.01.23,0,.3-.03.19-.18.35-.16.65.01.14.14.1.16.16.05.23-.04.57,0,.81.04.19.28.43.34.64.07.23.04.52.11.76-.11-.02-.67.11-.83.15-.58-.15-1.41-.13-1.67-.83.03.01.12-.02.17.02.22.13.39.38.66.36.12-.12-.36-1.14-.3-1.39,0-.04.31-.11.08-.43.02,0,.05-.05.08-.08l.08-.15c.35-.34.82-.9,1.29-.98Z"/>
    <path class="st10" d="M10.73,16.37c.24.32-.07.39-.08.43-.06.24.42,1.27.3,1.39-.28.02-.45-.23-.66-.36-.05-.03-.15,0-.17-.02-.35-.2-.18-.51-.02-.81.19-.35.35-.46.62-.63Z"/>
    <path class="st1" d="M12.62,18.48s.22.14.23.15c0,0-.04.13.05.15.27.07.56-.06.93.07.05.02.18.11.23.15-.26-.01-.59.04-.83,0,0-.04-.04-.07-.08-.08-.07-.01-.15,0-.23,0-.05,0-.11,0-.15,0-.05,0-.11.01-.15,0-.19-.05-.55-.23-.83-.3.16-.04.72-.17.83-.15Z"/>
    <path class="st18" d="M10.95,14.47c-.05.08-.06.23-.15.3-.03-.01-.11,0-.15,0,.06-.17.07-.29.3-.3Z"/>
    <path class="st18" d="M9.52,16.67c-.02.19.08.35-.15.3,0-.19-.08-.35.15-.3Z"/>
    <path class="st18" d="M12.85,20.07c-.07-.01-.13-.07-.15-.08l.08-.08s.13.06.15.11l-.07.04Z"/>
    <path class="st10" d="M10.8,16.29s.01-.09.08-.15l-.08.15Z"/>
    <path class="st26" d="M11.41,19.54h-.08v-.08s.05,0,.08,0v.08Z"/>
    <path class="st30" d="M5.35,9.93c-.01.07,0,.15,0,.23-.12.05-.12.33,0,.38.01.08,0,.29.12.3.18.03.69-.39,1.12-.15.08.04.05.14.05.15.11.49-.33.72-.45,1.13-.18.09-.35.33-.53.45-.24.17-.62.36-.83.53-.36-.57-.62-.07-.87-.08-.19,0-.44-.27-.89-.13-.09.02-.44.45-.43.06.14-.2.34-.58.53-.83.15,0,.23-.07.23-.23.05-.06.12-.26.23-.38.29-.32.28-.18.53-.68.01-.02-.01-.06,0-.08.17.02.47-.37.3-.45.03-.05.05-.1.08-.15.29-.2.49-.19.83-.08Z"/>
    <path class="st1" d="M1.79,13.64c0,.15-.07.24-.23.23.16-.25.14-.14.23-.23Z"/>
    <path class="st1" d="M2.4,12.96c-.09.1-.16.15-.23.23.01-.06-.02-.21,0-.23s.17.01.23,0Z"/>
    <path class="st3" d="M16.33,12.05s-.17-.2-.04-.23c.17-.03.11.08.11.23h-.08Z"/>
    <path class="st17" d="M17.77,10.62l.08-.15c-.03.06-.05.1-.08.15Z"/>
    <path class="st17" d="M17.7,10.77s-.12-.07-.04-.08c.03,0,.05.06.04.08Z"/>
    <path class="st20" d="M9.74,15.99c.02.16,0,.17-.15.15.08-.29.09-.09.15-.15Z"/>
    <path class="st20" d="M7.77,2.75s.11.05.08.15c-.14.04-.04-.11-.08-.15Z"/>
    <path class="st20" d="M6.11,1.69c.45-.8,1.09-1.32,2.04-1.36.04.04-.18.43-.23.53-.1.25-.12.2-.15.53,0,.1,0,.2,0,.3s0,.2,0,.3,0,.2,0,.3c0,.14-.09.15,0,.45-.01-.01-.18,0-.22-.12s.03-.3-.03-.39c-.02-.03-.16-.06-.22-.12-.29-.31-.54-.56-.45-1.03l-.19.07-.57.53Z"/>
    <path class="st11" d="M6.11,1.69l.57-.53.19-.07c-.09.47.16.72.45,1.03.06.06.2.09.22.12.05.09-.01.27.03.39s.21.11.22.12c.03.04-.06.19.08.15.03-.1-.07-.14-.08-.15-.09-.3,0-.32,0-.45l.15.23c-.02.11,0,.26,0,.38-.01.18.08.32.08.68-.53.36-.68.34-1.25.08l.04.3s-.09.03-.13-.02-.06-.24-.14-.36c-.15-.22-.63-.66-.64-.84-.02-.23.21-.57.08-.76.07-.18.07-.16.15-.3ZM7.85,3.43c.04-.31-.11-.31-.07,0h.07Z"/>
    <path class="st30" d="M7.77,1.69c.35-.09.34.4,0,.3,0-.1,0-.2,0-.3Z"/>
    <path class="st11" d="M13.38,17.05c1.87,1.81,3.47,1.88,5.64,2.8.22.09.7.34.63.63-.1.42-.81.25-1.12.28.06-.15-.3-.27-.36-.28-.23-.04-.46-.02-.7-.02,0-.02,0-.06,0-.08-.06-.12-.13-.07-.23-.08-.21-.02-.47,0-.68,0,.03-.21-.11-.21-.08,0-.08,0-.15,0-.23,0v-.08l-.04-.08-.11.08c-.05,0-.1,0-.15,0,.04-.26-.26-.1-.45-.19-.04-.02-.25-.23-.27-.27-.04-.07.1-.37.12-.38.05-.03.39.08.19-.23-.14-.22-.36-.09-.5-.07-.05,0-.1,0-.15,0,.04-.25-.08-.12-.23-.15-.02,0-.05,0-.08,0-.01,0-.07-.06-.15-.08-.02,0-.05,0-.08,0,.04-.26-.2-.33-.29-.51-.1-.2-.13-.63-.24-.8-.08-.11-.54-.14-.45-.51Z"/>
    <path class="st13" d="M12.17,15.46c.38.55.73,1.12,1.21,1.59-.08.37.38.39.45.51.11.17.14.6.24.8.09.18.33.25.29.51-.14-.04-.31-.05-.45-.08-.06-.01-.18-.12-.35-.15-.23-.03-.48,0-.71,0-.01,0-.21-.15-.23-.15-.07-.24-.04-.53-.11-.76-.06-.21-.3-.45-.34-.64-.05-.25.05-.59,0-.81-.01-.06-.15-.02-.16-.16-.02-.29.13-.45.16-.65Z"/>
    <path class="st11" d="M8.38,8.8c0,.07,0,.15,0,.23,0,.02-.08.17-.08.34,0,.1-.03.29.08.34-.09.56-.28,1.66-.68,2.04-.01.01-.33.21-.35.21-.15.01-.31-.09-.43-.06-.11.03-.1.22-.17.23-.23.04-.32-.23-.34-.23.26-.39.35-.6.38-1.06,0-.05.08-.09.04-.23-.14-.51-.89-.33-1.26-.23.01-.2.03-.5.08-.68.51.18.51-.07.83-.19.22-.09.57-.06.79-.2.14-.09.2-.34.35-.41.18-.08.54-.07.76-.11Z"/>
    <path class="st20" d="M8.38,8.8c-.21.04-.58.03-.76.11-.15.07-.21.31-.35.41-.21.14-.57.11-.79.2-.32.13-.32.37-.83.19.11-.41.53-.91.53-1.36,0-.03-.03-.09-.08-.08,0-.04,0-.11,0-.15,0-.06.06-.36.08-.38.02-.02.23.02.32,0,.06-.01.06-.12.11-.14.23-.1.55-.14.7-.39.51.36,1.03.89,1.06,1.59Z"/>
    <path class="st5" d="M6.11,6.61c.05,0,.1,0,.15,0,.15.12.35.18.53.23.02,0,.05,0,.08,0-.05.22.18.16.33.24.08.05.1.12.13.13-.15.24-.47.28-.7.39-.06.03-.06.13-.11.14-.09.02-.31-.02-.32,0-.01.01-.07.32-.08.38h-.08s0-.05,0-.08c-.02-.5-.39-.9-.87-1.06-.37-.12-.65-.04-.98-.08-.14-.02-.12.02-.11-.15.71-.1,1.32-.16,2.05-.15Z"/>
    <path class="st20" d="M8.38,9.71c-.11-.05-.08-.24-.08-.34,0-.17.08-.32.08-.34.2.23.03.49,0,.68Z"/>
    <path class="st28" d="M12.92,18.94l-.04.08-.11-.08s.1,0,.15,0Z"/>
    <path class="st28" d="M13.23,19.01s-.07-.04-.08-.08c.04,0,.07.04.08.08Z"/>
    <path class="st14" d="M6.26,6.61s.04-.08.22-.04c.12.02.37.13.31.27-.18-.05-.38-.11-.53-.23Z"/>
    <path class="st20" d="M6.86,5.93h-.08c-.06-.08-.05-.1-.15-.15v-.15c.27-.04.19.26.23.3Z"/>
    <path class="st23" d="M6.64,5.62v.15s-.13.02-.15,0c-.05-.05.07-.14.08-.15h.08Z"/>
    <path class="st17" d="M3.99,7.44c0-.27-.05-.21.19-.23.47-.04.91.04,1.33.27l.53.56s0,.05,0,.08c0,.2-.01.3-.07.5-.13.42-.53.89-.61,1.32-.34-.12-.55-.13-.83.08.25-.51.52-1.71.08-2.15-.1-.1-.18-.03-.23-.05-.02-.05.04-.17-.01-.22-.01-.01-.3-.13-.36-.16Z"/>
    <path class="st18" d="M17.47,5.77s.03.18.08.23c-.04-.02-.14.02-.23-.04s-.06-.17-.07-.19c.06.01.2-.02.23,0Z"/>
    <path class="st18" d="M18,6.53c-.21,0-.25-.21-.3-.3.26-.01.24.21.3.3Z"/>
    <path class="st30" d="M18.3,7.29l-.07-.04.07-.04s0,.06,0,.08Z"/>
    <path class="st1" d="M15.65,20.22s-.03.13.05.15c.22.06.41-.07.56-.08.08,0,.15,0,.23,0,.03,0,.05,0,.08,0,.22,0,.47-.02.68,0l.23.08s0,.05,0,.08v.08c-.6-.07-1.31-.02-1.89-.08-.37-.04-.65-.12-.68-.53.21.12.57.2.76.3Z"/>
    <path class="st13" d="M15.35,19.39s-.15.31-.12.38c.02.04.23.25.27.27.19.09.49-.07.45.19h-.3c-.19-.11-.54-.18-.76-.3-.02-.2-.01-.47.23-.53.06-.02.16.01.23,0Z"/>
    <path class="st20" d="M15.05,19.09c.13-.01.35-.15.5.07.2.31-.14.2-.19.23-.07.01-.17-.02-.23,0l-.08-.3Z"/>
    <path class="st14" d="M14.36,18.86s.05,0,.08,0c.02.16,0,.17-.15.15-.08,0-.15,0-.23,0-.04-.04-.18-.13-.23-.15l.08-.08c.15.03.31.04.45.08Z"/>
    <path class="st20" d="M14.59,18.94l.04.07.04-.07c.14.04.27-.09.23.15-.39.07-.23-.05-.61-.08.16.02.17,0,.15-.15.08.02.14.07.15.08Z"/>
    <path class="st1" d="M17.77,20.6s-.05,0-.08,0l.04-.07.04.07Z"/>
    <path class="st17" d="M4.14,10.69c-.25.5-.24.36-.53.68.02-.1.07-.2.08-.3.02-.01.08.02.13-.02.1-.07.11-.42.32-.36Z"/>
    <path class="st17" d="M4.14,10.62c.09-.18.27-.39.3-.45.17.08-.14.47-.3.45Z"/>
    <path class="st20" d="M5.88,2.75h-.15c.03-.32.12-.48.23-.76.13.18-.09.52-.08.76Z"/>
    <path class="st20" d="M5.73,3.81c.24-.05.26.47.3.68-.2.06-.28-.49-.3-.68Z"/>
    <path class="st20" d="M5.73,3.35c0-.1,0-.2,0-.3.11.02.12.27,0,.3Z"/>
    <path class="st17" d="M3.38,11.75c0,.15-.07.23-.23.23.13-.17.21-.2.23-.23Z"/>
    <path class="st17" d="M14.59,4.49c.36.03.18.12.23.15v.08c-.1-.05-.32.05-.3-.23.02,0,.05,0,.08,0Z"/>
    <path class="st17" d="M15.42,4.94s-.01.11,0,.15c-.32.06-.2-.12-.23-.15.08,0,.15,0,.23,0Z"/>
    <path class="st17" d="M13.68,4.34c-.07,0-.24.2-.38-.15.14.03.29,0,.38.15Z"/>
    <path class="st17" d="M14.21,4.49c-.07,0-.26.23-.23-.08.07.02.18-.03.23.08Z"/>
    <path class="st10" d="M7.62,4.19c-.07.48.19.3.4.4.11.05.17.17.26.19.28.08.37-.07.7.17-.1,0-.2,0-.3,0-.05,0-.1,0-.15,0-.03,0-.05,0-.08,0-.08,0-.15,0-.23,0l-.98-.38c-.13-.15-.32-.31-.3-.53.24.1.4.2.68.15Z"/>
    <path class="st14" d="M8,3.58s0,.05,0,.08v.3c-.12.03-.17.19-.38.23-.29.05-.44-.05-.68-.15-.06-.02-.1-.05-.15-.08l-.04-.3c.57.27.72.29,1.25-.08Z"/>
    <path class="st18" d="M10.05,4.94v.15s-.09.07-.18.08c-.28.02-.68.09-.57-.23.25,0,.51,0,.76,0Z"/>
    <path class="st17" d="M12.32,5.24c-.2,0-.4,0-.61,0l-.3-.15s.07-.08.24-.06c.11,0,.62.15.67.21Z"/>
    <path class="st17" d="M10.05,4.94c.25,0,.83-.1.76.15-.25,0-.51-.01-.76,0v-.15Z"/>
    <path class="st18" d="M8.23,4.94s-.04.06-.1.05c-.13-.01-.81-.23-.87-.3-.04-.04,0-.12-.02-.13l.98.38Z"/>
    <path class="st18" d="M11.41,5.09l.3.15c-.17,0-.68.11-.61-.15.1,0,.2,0,.3,0Z"/>
    <path class="st18" d="M12.62,5.24v.15s-.08.11-.18.07c-.13-.04-.1-.19-.12-.22.1,0,.2,0,.3,0Z"/>
    <path class="st18" d="M8.99,4.94s.08.08.15.08c-.14.13-.53.15-.45-.08.1,0,.2,0,.3,0Z"/>
    <path class="st17" d="M9.14,4.94s.01.06,0,.08c-.08,0-.1-.04-.15-.08.05,0,.1,0,.15,0Z"/>
    <path class="st18" d="M8.46,4.94s.05,0,.08,0h-.08Z"/>
    <path class="st3" d="M8,3.96c.35-.1.29.14.45.27.12.1.38.21.44.28.14.16,0,.37.4.28.02.09-.09.09-.15.15-.05,0-.1,0-.15,0-.33-.24-.42-.08-.7-.17-.09-.03-.15-.14-.26-.19-.2-.1-.47.08-.4-.4.21-.03.26-.19.38-.23Z"/>
    <path class="st17" d="M7.93,2.9c.3-.11.26.71.23.76,0,.01-.11,0-.15,0,0-.03,0-.05,0-.08,0-.36-.09-.5-.08-.68Z"/>
    <path class="st17" d="M15.5,5.32s.06,0,.08,0v.08c0,.15,0,.3,0,.45h-.08c-.01-.1-.17-.37-.15-.49.03-.06.1-.04.15-.04Z"/>
    <path class="st20" d="M16.56,9.1c-.02.1-.06.2-.08.3-.07.01-.19-.02-.23,0-.17.05-.22-.09-.12-.23.09-.12.31-.05.42-.07Z"/>
    <path class="st20" d="M17.39,8.19c-.35.4-.23.77-.83.91.05-.3.2-.48.21-.58s-.12-.2-.11-.41.24-.24.25-.5c0-.15-.07-.29-.06-.43.03-.23.39-.42.3-.72.43.84.27.87.23,1.74Z"/>
    <path class="st10" d="M11.11,13.04s.21.15.22.16c.04.08-.07.12-.07.14l-.15-.3Z"/>
    <path class="st10" d="M11.18,14.1l.08-.15c-.02.09-.07.12-.08.15Z"/>
    <path class="st18" d="M6.79,10.84c-.03.46-.11.67-.38,1.06-.01,0-.2.06-.23.08.12-.42.56-.65.45-1.13.02.01.11,0,.15,0Z"/>
    <path class="st1" d="M15.58,5.4v-.08s.06-.01.07.04l-.07.04Z"/>
    <path class="st20" d="M13.91,18.79l-.08.08c-.37-.13-.67,0-.93-.07-.09-.02-.04-.15-.05-.15.23.01.48-.03.71,0,.17.02.28.13.35.15Z"/>
    <path class="st14" d="M6.79,10.84s-.13.01-.15,0c0,0,.03-.1-.05-.15-.43-.24-.93.18-1.12.15-.12-.02-.1-.22-.12-.3,0-.02,0-.05,0-.08.1.03.18-.06.23-.08.36-.1,1.12-.29,1.26.23.04.14-.04.18-.04.23Z"/>
    <path class="st13" d="M6.11,8.27s.04.07.08.08c0,.45-.42.95-.53,1.36-.05.19-.06.48-.08.68-.05.01-.13.11-.23.08,0-.09-.01-.22,0-.3,0-.07-.01-.16,0-.23.08-.43.48-.9.61-1.32.06-.19.07-.3.07-.5h.08s0,.11,0,.15Z"/>
    <path class="st17" d="M5.35,10.46s0,.05,0,.08c-.12-.05-.12-.33,0-.38-.01.09,0,.21,0,.3Z"/>
    <path class="st20" d="M15.95,20.22c.05,0,.1,0,.15,0s.1,0,.15,0v.08c-.15,0-.33.14-.56.08-.08-.02-.04-.15-.05-.15h.3Z"/>
    <path class="st20" d="M17.47,20.38l-.23-.08c.1,0,.17-.04.23.08Z"/>
    <path class="st13" d="M16.56,20.3s-.05,0-.08,0c-.03-.21.11-.21.08,0Z"/>
    <path class="st13" d="M16.26,20.22c-.05,0-.1,0-.15,0l.11-.08.04.08Z"/>
    <path class="st14" d="M14.59,18.94s.05,0,.08,0l-.04.07-.04-.07Z"/>
    <path class="st5" d="M6.18,8.35s-.07-.03-.08-.08c.05-.01.08.04.08.08Z"/>
    <path class="st20" d="M7.85,3.43h-.07c-.04-.31.11-.31.07,0Z"/>
  </g>
</svg>